<svg version="1.1" id="Layer_1" xmlns="http://www.w3.org/2000/svg" xmlns:xlink="http://www.w3.org/1999/xlink" x="0px" y="0px"
	 width="100%" viewBox="0 0 4030 448" enable-background="new 0 0 4030 448" xml:space="preserve">
<path fill="#FFFFFF" opacity="1.000000" stroke="none" 
	d="
M2903.000000,449.000000 
	C2878.975830,449.000000 2854.951904,449.000000 2830.579102,448.668213 
	C2836.287109,445.600281 2839.767334,440.611481 2839.873779,434.284363 
	C2840.212891,414.137390 2840.125244,393.979919 2839.931641,373.829102 
	C2839.863525,366.740448 2833.273193,358.606598 2824.510742,358.813416 
	C2801.206543,359.363312 2777.880859,359.000244 2754.563721,359.000275 
	C2752.800537,359.000275 2751.037354,359.000244 2749.000000,359.000244 
	C2749.000000,389.421661 2749.000000,419.210846 2749.000000,449.000000 
	C2733.975830,449.000000 2718.951904,449.000000 2703.463867,448.545074 
	C2703.000000,447.257965 2703.000000,446.425751 2703.000000,445.593567 
	C2702.999756,437.999481 2702.999756,437.999146 2695.509766,437.999084 
	C2673.207031,437.998901 2650.904541,437.999023 2628.601807,437.998993 
	C2626.835938,437.998993 2625.069824,437.998993 2623.000000,437.998993 
	C2623.000000,435.593994 2623.000000,433.789978 2623.000000,431.985992 
	C2623.000000,410.515472 2623.000000,389.044983 2623.000000,367.574463 
	C2623.000000,357.488220 2622.999756,357.484253 2613.002441,358.126862 
	C2612.737061,358.143860 2612.492188,358.482147 2612.000000,358.846619 
	C2612.000000,388.785614 2612.000000,418.892792 2612.000000,449.000000 
	C2594.309326,449.000000 2576.618408,449.000000 2558.375732,448.672974 
	C2548.841553,437.835297 2539.859375,427.324585 2530.181641,416.000214 
	C2535.699219,416.000214 2539.687500,416.068939 2543.672607,415.985321 
	C2551.053711,415.830536 2557.984863,408.815643 2557.996338,401.547363 
	C2558.011475,392.223907 2557.511963,382.866211 2558.161133,373.588165 
	C2558.643555,366.694336 2550.276367,358.693237 2543.448975,358.823181 
	C2519.482910,359.279327 2495.502930,358.995605 2471.528076,359.011810 
	C2470.095459,359.012756 2468.663086,359.180542 2467.000000,359.285187 
	C2467.000000,389.436707 2467.000000,419.218353 2467.000000,449.000000 
	C2446.642578,449.000000 2426.285156,449.000000 2405.579102,448.667664 
	C2411.874268,445.351440 2415.137207,440.432037 2415.063721,432.935760 
	C2414.874023,413.610809 2415.000244,394.282776 2414.999756,374.955963 
	C2414.999268,364.933136 2409.163330,359.001282 2399.299072,359.000641 
	C2379.805664,358.999359 2360.312012,359.000214 2340.818604,359.000244 
	C2330.037109,359.000244 2324.007568,365.085480 2324.002441,376.002258 
	C2323.993896,393.496338 2324.312012,410.998322 2323.870361,428.481262 
	C2323.644287,437.433563 2326.164307,444.356079 2334.000000,449.000000 
	C2304.642578,449.000000 2275.285156,449.000000 2245.470215,448.602142 
	C2245.114014,447.563477 2245.113525,446.885712 2245.331055,446.287201 
	C2255.837646,417.393311 2266.362793,388.506226 2277.109375,359.005341 
	C2273.516846,359.005341 2270.238037,358.796722 2267.012695,359.122467 
	C2265.936035,359.231232 2264.467529,360.512054 2264.073242,361.585938 
	C2255.865723,383.917786 2247.787354,406.297028 2239.627441,428.821472 
	C2239.171631,428.089417 2238.721436,427.579926 2238.503418,426.985291 
	C2231.310547,407.374664 2224.056152,387.786011 2217.003174,368.125122 
	C2213.632080,358.727661 2213.802002,358.557343 2203.407715,359.121002 
	C2201.916260,359.201874 2199.695068,360.585266 2199.193848,361.894745 
	C2193.983887,375.507233 2189.034424,389.219666 2184.061035,402.921967 
	C2180.947754,411.499268 2177.917236,420.106567 2174.520752,429.620361 
	C2167.107178,409.296844 2159.935547,390.027924 2153.062256,370.653137 
	C2148.692139,358.334259 2148.890869,358.263153 2137.740479,359.176788 
	C2137.592041,359.188934 2137.452148,359.300873 2136.979004,359.515625 
	C2137.980957,362.184204 2139.010254,364.873749 2140.002441,367.576874 
	C2146.587158,385.517456 2153.245605,403.431580 2159.708984,421.415833 
	C2162.989502,430.544495 2165.914307,439.801208 2169.000000,449.000000 
	C2130.642578,449.000000 2092.285156,449.000000 2053.463867,448.536987 
	C2053.000000,444.802948 2053.000000,441.531891 2053.000000,437.803101 
	C2028.680054,437.803101 2004.952271,437.803101 1981.386353,437.803101 
	C1981.386353,428.250977 1981.386353,419.190399 1981.386353,410.000977 
	C1999.097900,410.000977 2016.426147,409.831757 2033.747314,410.110321 
	C2038.568481,410.187836 2039.116089,408.134033 2039.111450,404.149109 
	C2039.106812,400.049011 2038.725830,397.734894 2033.544189,397.873383 
	C2019.723389,398.242798 2005.886230,397.999054 1992.055542,397.999054 
	C1988.454102,397.999054 1984.852661,397.999023 1981.364624,397.999023 
	C1981.364624,388.295471 1981.364624,379.235931 1981.364624,369.879730 
	C2005.336060,369.879730 2028.944580,369.879730 2052.740234,369.879730 
	C2052.740234,366.176422 2052.740234,362.784332 2052.740234,359.300934 
	C2025.091187,359.300934 1997.702637,359.300934 1970.000000,359.300934 
	C1970.000000,389.400299 1970.000000,419.200165 1970.000000,449.000000 
	C1949.642578,449.000000 1929.285156,449.000000 1908.562744,448.667908 
	C1911.129395,444.973816 1916.277710,441.804047 1916.588989,438.214783 
	C1917.645630,426.032379 1916.992676,413.701660 1916.992676,401.274414 
	C1905.795532,401.274414 1895.074951,401.274414 1884.316650,401.274414 
	C1884.316650,404.946381 1884.316650,408.335846 1884.316650,412.213837 
	C1891.689575,412.213837 1898.756226,412.213837 1905.999390,412.213837 
	C1905.999390,419.026855 1905.803711,425.350586 1906.063721,431.655579 
	C1906.259155,436.395111 1904.446045,438.116791 1899.686157,438.071167 
	C1881.202881,437.893982 1862.715942,437.890015 1844.232788,438.072906 
	C1839.390381,438.120819 1837.888672,436.226624 1837.931519,431.576538 
	C1838.100342,413.259705 1837.994507,394.940369 1838.003906,376.621979 
	C1838.007080,370.550873 1838.539795,370.008636 1844.532471,370.004883 
	C1862.184692,369.993835 1879.837036,370.000885 1897.489258,370.001068 
	C1905.540405,370.001129 1905.540405,370.001343 1906.371826,377.803955 
	C1907.788330,377.867798 1909.254639,377.967010 1910.722168,377.991821 
	C1912.674805,378.024872 1914.628174,378.000000 1916.514038,378.000000 
	C1918.073608,365.664764 1912.405273,359.000275 1900.812622,359.000275 
	C1880.662354,359.000305 1860.512207,358.992523 1840.361938,359.004547 
	C1833.620972,359.008575 1827.006592,365.693848 1827.003418,372.496765 
	C1826.993774,392.980072 1827.186279,413.466095 1826.885376,433.944977 
	C1826.796387,440.002045 1829.584473,443.751190 1833.982056,447.013428 
	C1834.732910,447.570312 1835.331299,448.332581 1836.000000,449.000000 
	C1815.309204,449.000000 1794.618530,449.000000 1773.375732,448.673035 
	C1763.841431,437.835266 1754.859131,427.324524 1745.181763,416.000214 
	C1750.698486,416.000214 1754.687012,416.068909 1758.672241,415.985321 
	C1766.053345,415.830536 1772.984497,408.815552 1772.996338,401.547455 
	C1773.011353,392.223999 1772.512207,382.866333 1773.160889,373.588226 
	C1773.643311,366.689819 1765.272827,358.693237 1758.448853,358.823090 
	C1734.482910,359.279266 1710.502808,358.995605 1686.528076,359.011810 
	C1685.095581,359.012787 1683.663086,359.180603 1682.000000,359.285309 
	C1682.000000,389.436737 1682.000000,419.218353 1682.000000,449.000000 
	C1661.642578,449.000000 1641.285156,449.000000 1620.579102,448.667664 
	C1626.874390,445.351471 1630.136841,440.431915 1630.063354,432.935730 
	C1629.873657,413.610840 1630.000366,394.282837 1629.999756,374.956085 
	C1629.999390,364.932922 1624.163452,359.001251 1614.298950,359.000610 
	C1594.805542,358.999359 1575.312256,359.000214 1555.818848,359.000244 
	C1545.037964,359.000244 1539.007202,365.086090 1539.001709,376.002197 
	C1538.992920,393.496246 1539.311035,410.998138 1538.869873,428.481049 
	C1538.644043,437.433167 1541.164307,444.356049 1549.000000,449.000000 
	C1506.309204,449.000000 1463.618530,449.000000 1420.463867,448.531342 
	C1420.000000,435.473053 1420.000000,422.883423 1420.000000,410.000977 
	C1438.071289,410.000977 1455.533813,409.800415 1472.986694,410.123413 
	C1478.214111,410.220184 1477.984497,407.551971 1478.084106,403.918304 
	C1478.191040,400.007477 1477.737671,397.794128 1472.818970,397.887421 
	C1457.005005,398.187286 1441.181885,397.998962 1425.362305,397.998962 
	C1423.618896,397.998962 1421.875488,397.998993 1420.248779,397.998993 
	C1420.248779,388.286743 1420.248779,379.351166 1420.248779,369.952820 
	C1444.209839,369.952820 1467.927612,369.952820 1491.698242,369.952820 
	C1491.698242,366.087128 1491.698242,362.695953 1491.698242,359.322388 
	C1464.020264,359.322388 1436.645142,359.322388 1409.000000,359.322388 
	C1409.000000,389.429077 1409.000000,419.214539 1409.000000,449.000000 
	C1380.309204,449.000000 1351.618530,449.000000 1322.463867,448.536987 
	C1322.000000,444.802979 1322.000000,441.531982 1322.000000,437.803131 
	C1297.680054,437.803131 1273.952271,437.803131 1250.386353,437.803131 
	C1250.386353,428.250946 1250.386353,419.190369 1250.386353,410.000977 
	C1268.098022,410.000977 1285.426270,409.831726 1302.747437,410.110291 
	C1307.568726,410.187836 1308.115967,408.133789 1308.111450,404.149048 
	C1308.106812,400.048920 1307.725830,397.734863 1302.544189,397.873383 
	C1288.723389,398.242767 1274.886108,397.999054 1261.055420,397.999054 
	C1257.453979,397.999054 1253.852539,397.999023 1250.364746,397.999023 
	C1250.364746,388.295410 1250.364746,379.235840 1250.364746,369.879700 
	C1274.336182,369.879700 1297.944580,369.879700 1321.740479,369.879700 
	C1321.740479,366.176361 1321.740479,362.784241 1321.740479,359.300903 
	C1294.091187,359.300903 1266.702637,359.300903 1239.000000,359.300903 
	C1239.000000,389.400299 1239.000000,419.200134 1239.000000,449.000000 
	C1211.975952,449.000000 1184.951782,449.000000 1157.470459,448.602173 
	C1157.114136,447.563568 1157.113525,446.885773 1157.331055,446.287354 
	C1167.837402,417.393402 1178.362793,388.506378 1189.109253,359.005341 
	C1185.516846,359.005341 1182.237793,358.796814 1179.012695,359.122589 
	C1177.935913,359.231354 1176.467896,360.512054 1176.073364,361.585815 
	C1167.865845,383.917603 1159.787354,406.296783 1151.627441,428.821228 
	C1151.171387,428.088959 1150.721191,427.579498 1150.503174,426.984863 
	C1143.310669,407.374084 1136.056152,387.785278 1129.003174,368.124237 
	C1125.632202,358.727203 1125.802124,358.556854 1115.406616,359.121033 
	C1113.915405,359.201996 1111.694824,360.585999 1111.193604,361.895691 
	C1105.984131,375.508118 1101.034790,389.220459 1096.061401,402.922485 
	C1092.948242,411.499451 1089.916992,420.106140 1086.520508,429.619568 
	C1079.106812,409.295990 1071.935303,390.027161 1065.061890,370.652618 
	C1060.691406,358.333282 1060.889893,358.262177 1049.739868,359.176849 
	C1049.591797,359.188995 1049.451660,359.301239 1048.979004,359.516510 
	C1049.980835,362.184753 1051.010132,364.874298 1052.002319,367.577515 
	C1058.586914,385.517853 1065.245239,403.431763 1071.708740,421.415741 
	C1074.989624,430.544464 1077.914307,439.801178 1081.000000,449.000000 
	C721.027344,449.000000 361.054688,449.000000 1.041006,449.000000 
	C1.041006,299.705353 1.041006,150.410690 1.041006,1.058015 
	C1344.333374,1.058015 2687.666748,1.058015 4031.000000,1.058015 
	C4031.000000,30.742683 4031.000000,60.407459 4030.531250,90.531342 
	C3958.155762,90.990440 3886.249023,90.990440 3814.326660,90.990440 
	C3814.326660,103.963959 3814.326660,116.352646 3814.326660,128.667923 
	C3814.964600,128.817642 3815.277832,128.955475 3815.591064,128.955582 
	C3887.394043,128.976715 3959.197021,128.988220 4031.000000,129.000000 
	C4031.000000,235.633530 4031.000000,342.267059 4031.000000,449.000000 
	C3678.975830,449.000000 3326.951904,449.000000 2974.577637,448.668518 
	C2976.185059,446.742828 2978.627197,445.487793 2980.018799,443.497833 
	C2987.465332,432.848602 2984.242432,420.892273 2982.865967,409.589752 
	C2981.955566,402.113098 2974.679199,398.091919 2965.862549,398.035461 
	C2947.201172,397.915985 2928.538086,397.930603 2909.876709,398.051147 
	C2905.643066,398.078491 2903.797363,396.530579 2903.954102,392.213898 
	C2904.147217,386.888885 2904.209961,381.540771 2903.938232,376.222656 
	C2903.689453,371.351410 2905.803955,369.888214 2910.442139,369.931915 
	C2928.436035,370.101532 2946.432617,370.000977 2964.428223,370.000946 
	C2972.301758,370.000916 2972.381348,370.068329 2973.401855,377.748871 
	C2976.802246,377.748871 2980.221191,377.748871 2983.609131,377.748871 
	C2984.888672,365.963593 2978.739502,359.000366 2967.301514,359.000305 
	C2947.306396,359.000214 2927.310791,358.947998 2907.316406,359.075562 
	C2905.147217,359.089355 2902.762451,359.740753 2900.860840,360.790192 
	C2895.209229,363.908966 2892.731445,368.890198 2892.959961,375.388092 
	C2893.153320,380.879944 2893.376465,386.415771 2892.915771,391.875549 
	C2892.127441,401.221649 2898.777100,410.104187 2911.190186,410.029724 
	C2929.685059,409.918762 2948.182373,410.123108 2966.675537,409.914581 
	C2971.264404,409.862854 2972.976807,411.797119 2972.994629,415.971802 
	C2973.017334,421.303741 2973.022461,426.635956 2972.992676,431.967834 
	C2972.969727,436.084686 2971.380615,438.142334 2966.736084,438.086823 
	C2948.742920,437.871552 2930.745850,437.999115 2912.750244,437.998962 
	C2904.761475,437.998901 2904.761475,437.998871 2903.428711,430.316895 
	C2900.015869,430.319397 2896.607910,430.319397 2893.289795,430.319397 
	C2891.633057,439.340088 2896.163086,444.785095 2903.000000,449.000000 
M977.000000,131.500000 
	C977.000000,100.957916 977.000000,70.415840 977.000000,39.873760 
	C976.760620,39.875500 976.521240,39.877239 976.281860,39.878979 
	C976.281860,99.364571 976.281860,158.850159 976.281860,218.335754 
	C976.521240,218.336487 976.760620,218.337219 977.000000,218.337952 
	C977.000000,189.725296 977.000000,161.112656 977.000000,131.500000 
M3410.000000,112.468079 
	C3410.000000,115.925346 3410.000000,119.382614 3410.000000,122.839882 
	C3410.226807,122.832985 3410.453857,122.826088 3410.680664,122.819183 
	C3410.680664,114.274963 3410.680664,105.730743 3410.680664,97.186523 
	C3410.453857,97.185860 3410.226807,97.185196 3410.000000,97.184532 
	C3410.000000,101.950386 3410.000000,106.716248 3410.000000,112.468079 
z"/>
<path fill="#FC5D19" opacity="1.000000" stroke="none" 
	d="
M4031.000000,128.531342 
	C3959.197021,128.988220 3887.394043,128.976715 3815.591064,128.955582 
	C3815.277832,128.955475 3814.964600,128.817642 3814.326660,128.667923 
	C3814.326660,116.352646 3814.326660,103.963959 3814.326660,90.990440 
	C3886.249023,90.990440 3958.155762,90.990440 4030.531250,90.995224 
	C4031.000000,103.354225 4031.000000,115.708458 4031.000000,128.531342 
z"/>
<path fill="#FC5D19" opacity="1.000000" stroke="none" 
	d="
M1081.458008,449.000000 
	C1077.914307,439.801178 1074.989624,430.544464 1071.708740,421.415741 
	C1065.245239,403.431763 1058.586914,385.517853 1052.002319,367.577515 
	C1051.010132,364.874298 1049.980835,362.184753 1048.979004,359.516510 
	C1049.451660,359.301239 1049.591797,359.188995 1049.739868,359.176849 
	C1060.889893,358.262177 1060.691406,358.333282 1065.061890,370.652618 
	C1071.935303,390.027161 1079.106812,409.295990 1086.520508,429.619568 
	C1089.916992,420.106140 1092.948242,411.499451 1096.061401,402.922485 
	C1101.034790,389.220459 1105.984131,375.508118 1111.193604,361.895691 
	C1111.694824,360.585999 1113.915405,359.201996 1115.406616,359.121033 
	C1125.802124,358.556854 1125.632202,358.727203 1129.003174,368.124237 
	C1136.056152,387.785278 1143.310669,407.374084 1150.503174,426.984863 
	C1150.721191,427.579498 1151.171387,428.088959 1151.627441,428.821228 
	C1159.787354,406.296783 1167.865845,383.917603 1176.073364,361.585815 
	C1176.467896,360.512054 1177.935913,359.231354 1179.012695,359.122589 
	C1182.237793,358.796814 1185.516846,359.005341 1189.109253,359.005341 
	C1178.362793,388.506378 1167.837402,417.393402 1157.331055,446.287354 
	C1157.113525,446.885773 1157.114136,447.563568 1157.006592,448.602173 
	C1153.638672,449.000000 1150.277466,449.000000 1146.449829,448.612854 
	C1137.091553,423.779755 1128.199463,399.333771 1118.973145,373.968384 
	C1112.772583,390.563538 1106.895874,405.964630 1101.275391,421.458710 
	C1097.973022,430.562714 1095.078125,439.814606 1092.000000,449.000000 
	C1088.638672,449.000000 1085.277466,449.000000 1081.458008,449.000000 
z"/>
<path fill="#FC5D19" opacity="1.000000" stroke="none" 
	d="
M2169.458008,449.000000 
	C2165.914307,439.801208 2162.989502,430.544495 2159.708984,421.415833 
	C2153.245605,403.431580 2146.587158,385.517456 2140.002441,367.576874 
	C2139.010254,364.873749 2137.980957,362.184204 2136.979004,359.515625 
	C2137.452148,359.300873 2137.592041,359.188934 2137.740479,359.176788 
	C2148.890869,358.263153 2148.692139,358.334259 2153.062256,370.653137 
	C2159.935547,390.027924 2167.107178,409.296844 2174.520752,429.620361 
	C2177.917236,420.106567 2180.947754,411.499268 2184.061035,402.921967 
	C2189.034424,389.219666 2193.983887,375.507233 2199.193848,361.894745 
	C2199.695068,360.585266 2201.916260,359.201874 2203.407715,359.121002 
	C2213.802002,358.557343 2213.632080,358.727661 2217.003174,368.125122 
	C2224.056152,387.786011 2231.310547,407.374664 2238.503418,426.985291 
	C2238.721436,427.579926 2239.171631,428.089417 2239.627441,428.821472 
	C2247.787354,406.297028 2255.865723,383.917786 2264.073242,361.585938 
	C2264.467529,360.512054 2265.936035,359.231232 2267.012695,359.122467 
	C2270.238037,358.796722 2273.516846,359.005341 2277.109375,359.005341 
	C2266.362793,388.506226 2255.837646,417.393311 2245.331055,446.287201 
	C2245.113525,446.885712 2245.114014,447.563477 2245.006348,448.602142 
	C2241.638672,449.000000 2238.277344,449.000000 2234.449951,448.612823 
	C2225.091797,423.779572 2216.199951,399.333466 2206.973389,373.967834 
	C2200.772705,390.563477 2194.895752,405.964752 2189.275635,421.458954 
	C2185.973145,430.562927 2183.078125,439.814667 2180.000000,449.000000 
	C2176.638672,449.000000 2173.277344,449.000000 2169.458008,449.000000 
z"/>
<path fill="#FC5D19" opacity="1.000000" stroke="none" 
	d="
M2903.468750,449.000000 
	C2896.163086,444.785095 2891.633057,439.340088 2893.289795,430.319397 
	C2896.607910,430.319397 2900.015869,430.319397 2903.428711,430.316895 
	C2904.761475,437.998871 2904.761475,437.998901 2912.750244,437.998962 
	C2930.745850,437.999115 2948.742920,437.871552 2966.736084,438.086823 
	C2971.380615,438.142334 2972.969727,436.084686 2972.992676,431.967834 
	C2973.022461,426.635956 2973.017334,421.303741 2972.994629,415.971802 
	C2972.976807,411.797119 2971.264404,409.862854 2966.675537,409.914581 
	C2948.182373,410.123108 2929.685059,409.918762 2911.190186,410.029724 
	C2898.777100,410.104187 2892.127441,401.221649 2892.915771,391.875549 
	C2893.376465,386.415771 2893.153320,380.879944 2892.959961,375.388092 
	C2892.731445,368.890198 2895.209229,363.908966 2900.860840,360.790192 
	C2902.762451,359.740753 2905.147217,359.089355 2907.316406,359.075562 
	C2927.310791,358.947998 2947.306396,359.000214 2967.301514,359.000305 
	C2978.739502,359.000366 2984.888672,365.963593 2983.609131,377.748871 
	C2980.221191,377.748871 2976.802246,377.748871 2973.401855,377.748871 
	C2972.381348,370.068329 2972.301758,370.000916 2964.428223,370.000946 
	C2946.432617,370.000977 2928.436035,370.101532 2910.442139,369.931915 
	C2905.803955,369.888214 2903.689453,371.351410 2903.938232,376.222656 
	C2904.209961,381.540771 2904.147217,386.888885 2903.954102,392.213898 
	C2903.797363,396.530579 2905.643066,398.078491 2909.876709,398.051147 
	C2928.538086,397.930603 2947.201172,397.915985 2965.862549,398.035461 
	C2974.679199,398.091919 2981.955566,402.113098 2982.865967,409.589752 
	C2984.242432,420.892273 2987.465332,432.848602 2980.018799,443.497833 
	C2978.627197,445.487793 2976.185059,446.742828 2974.113770,448.668518 
	C2950.645752,449.000000 2927.291748,449.000000 2903.468750,449.000000 
z"/>
<path fill="#FC5D19" opacity="1.000000" stroke="none" 
	d="
M2467.458008,449.000000 
	C2467.000000,419.218353 2467.000000,389.436707 2467.000000,359.285187 
	C2468.663086,359.180542 2470.095459,359.012756 2471.528076,359.011810 
	C2495.502930,358.995605 2519.482910,359.279327 2543.448975,358.823181 
	C2550.276367,358.693237 2558.643555,366.694336 2558.161133,373.588165 
	C2557.511963,382.866211 2558.011475,392.223907 2557.996338,401.547363 
	C2557.984863,408.815643 2551.053711,415.830536 2543.672607,415.985321 
	C2539.687500,416.068939 2535.699219,416.000214 2530.181641,416.000214 
	C2539.859375,427.324585 2548.841553,437.835297 2557.911865,448.672974 
	C2553.310791,449.000000 2548.621338,449.000000 2543.375244,448.671021 
	C2536.449219,440.664185 2530.166260,432.912506 2523.671631,425.342712 
	C2520.839600,422.042114 2517.787354,416.743774 2514.465332,416.443359 
	C2502.487061,415.360046 2490.351074,416.017487 2478.000000,416.017487 
	C2478.000000,427.419250 2478.000000,438.209625 2478.000000,449.000000 
	C2474.638672,449.000000 2471.277344,449.000000 2467.458008,449.000000 
M2487.673340,370.001099 
	C2480.463135,370.001984 2478.223633,371.266479 2478.062988,376.195648 
	C2477.829834,383.354462 2477.626221,390.552704 2478.120850,397.684784 
	C2478.527100,403.541107 2480.473877,405.035919 2485.726074,405.020477 
	C2503.892090,404.967072 2522.058350,405.018738 2540.224365,404.988159 
	C2545.460693,404.979370 2546.954346,403.485962 2546.988037,398.295319 
	C2547.035400,390.962555 2546.809082,383.622498 2547.067871,376.298553 
	C2547.237305,371.505737 2545.346924,369.880707 2540.632324,369.929596 
	C2523.301514,370.109283 2505.967529,370.001007 2487.673340,370.001099 
z"/>
<path fill="#FC5D19" opacity="1.000000" stroke="none" 
	d="
M1682.458008,449.000000 
	C1682.000000,419.218353 1682.000000,389.436737 1682.000000,359.285309 
	C1683.663086,359.180603 1685.095581,359.012787 1686.528076,359.011810 
	C1710.502808,358.995605 1734.482910,359.279266 1758.448853,358.823090 
	C1765.272827,358.693237 1773.643311,366.689819 1773.160889,373.588226 
	C1772.512207,382.866333 1773.011353,392.223999 1772.996338,401.547455 
	C1772.984497,408.815552 1766.053345,415.830536 1758.672241,415.985321 
	C1754.687012,416.068909 1750.698486,416.000214 1745.181763,416.000214 
	C1754.859131,427.324524 1763.841431,437.835266 1772.911865,448.673035 
	C1768.310669,449.000000 1763.621460,449.000000 1758.375244,448.670959 
	C1751.449463,440.664001 1745.166626,432.912140 1738.671631,425.342346 
	C1735.839722,422.041779 1732.787354,416.743713 1729.465332,416.443268 
	C1717.486938,415.359985 1705.351318,416.017456 1693.000000,416.017456 
	C1693.000000,427.419434 1693.000000,438.209717 1693.000000,449.000000 
	C1689.638672,449.000000 1686.277466,449.000000 1682.458008,449.000000 
M1738.499878,370.001099 
	C1725.669434,370.001099 1712.837158,370.128326 1700.009644,369.934296 
	C1695.306519,369.863190 1693.225586,372.261871 1693.075439,376.359070 
	C1692.813354,383.514496 1692.605103,390.716064 1693.135498,397.841675 
	C1693.528564,403.123077 1694.937134,405.033875 1700.882202,405.017822 
	C1719.044556,404.968750 1737.207275,405.022095 1755.369751,404.985870 
	C1760.558960,404.975525 1761.960449,403.494904 1761.989502,398.152100 
	C1762.030396,390.654022 1761.894897,383.153503 1762.042358,375.658112 
	C1762.120728,371.673248 1760.584106,369.853943 1756.494873,369.962982 
	C1750.833496,370.113983 1745.165161,370.001007 1738.499878,370.001099 
z"/>
<path fill="#FC5D19" opacity="1.000000" stroke="none" 
	d="
M2749.468750,449.000000 
	C2749.000000,419.210846 2749.000000,389.421661 2749.000000,359.000244 
	C2751.037354,359.000244 2752.800537,359.000275 2754.563721,359.000275 
	C2777.880859,359.000244 2801.206543,359.363312 2824.510742,358.813416 
	C2833.273193,358.606598 2839.863525,366.740448 2839.931641,373.829102 
	C2840.125244,393.979919 2840.212891,414.137390 2839.873779,434.284363 
	C2839.767334,440.611481 2836.287109,445.600281 2830.115234,448.668213 
	C2803.312500,449.000000 2776.625000,449.000000 2749.468750,449.000000 
M2760.000000,411.500000 
	C2760.000000,418.320923 2760.165527,425.147308 2759.941895,431.960907 
	C2759.792725,436.503632 2761.631592,438.096466 2766.107666,438.061035 
	C2784.739258,437.913422 2803.377197,437.778900 2822.002930,438.141296 
	C2827.184814,438.242126 2828.916260,435.951874 2828.944336,431.686584 
	C2829.065674,413.220978 2829.069336,394.753571 2828.941650,376.288055 
	C2828.912109,372.026794 2827.137939,369.758759 2821.977539,369.858856 
	C2803.351562,370.220154 2784.713867,370.087250 2766.082275,369.938721 
	C2761.583984,369.902893 2759.863770,371.545959 2759.937744,376.063629 
	C2760.125732,387.539673 2760.000000,399.020874 2760.000000,411.500000 
z"/>
<path fill="#FC5D19" opacity="1.000000" stroke="none" 
	d="
M2334.468750,449.000000 
	C2326.164307,444.356079 2323.644287,437.433563 2323.870361,428.481262 
	C2324.312012,410.998322 2323.993896,393.496338 2324.002441,376.002258 
	C2324.007568,365.085480 2330.037109,359.000244 2340.818604,359.000244 
	C2360.312012,359.000214 2379.805664,358.999359 2399.299072,359.000641 
	C2409.163330,359.001282 2414.999268,364.933136 2414.999756,374.955963 
	C2415.000244,394.282776 2414.874023,413.610809 2415.063721,432.935760 
	C2415.137207,440.432037 2411.874268,445.351440 2405.115234,448.667664 
	C2381.645752,449.000000 2358.291748,449.000000 2334.468750,449.000000 
M2358.500000,437.998932 
	C2371.809082,437.998901 2385.118652,437.948853 2398.427246,438.031769 
	C2402.043945,438.054321 2404.037354,436.867584 2404.025635,432.925232 
	C2403.968018,413.627167 2403.974365,394.328796 2404.022217,375.030670 
	C2404.031006,371.448425 2402.397461,369.970856 2398.882324,369.979126 
	C2379.251465,370.025208 2359.619873,369.940308 2339.990723,370.133514 
	C2338.635742,370.146790 2336.274170,371.928711 2336.128662,373.104523 
	C2335.424561,378.794464 2335.102295,384.556152 2335.043457,390.296539 
	C2334.906982,403.604248 2334.961670,416.914490 2335.015869,430.223389 
	C2335.044189,437.143585 2335.943359,437.996857 2342.527344,437.998718 
	C2347.518311,438.000092 2352.509033,437.998962 2358.500000,437.998932 
z"/>
<path fill="#FC5D19" opacity="1.000000" stroke="none" 
	d="
M1549.468628,449.000000 
	C1541.164307,444.356049 1538.644043,437.433167 1538.869873,428.481049 
	C1539.311035,410.998138 1538.992920,393.496246 1539.001709,376.002197 
	C1539.007202,365.086090 1545.037964,359.000244 1555.818848,359.000244 
	C1575.312256,359.000214 1594.805542,358.999359 1614.298950,359.000610 
	C1624.163452,359.001251 1629.999390,364.932922 1629.999756,374.956085 
	C1630.000366,394.282837 1629.873657,413.610840 1630.063354,432.935730 
	C1630.136841,440.431915 1626.874390,445.351471 1620.115234,448.667664 
	C1596.645752,449.000000 1573.291504,449.000000 1549.468628,449.000000 
M1576.500000,437.998932 
	C1588.810913,437.998901 1601.122314,437.945435 1613.432617,438.031952 
	C1617.053467,438.057404 1619.036987,436.856903 1619.025146,432.919891 
	C1618.967773,413.621826 1618.974121,394.323456 1619.021851,375.025330 
	C1619.030640,371.439789 1617.388306,369.970978 1613.877197,369.979187 
	C1594.246216,370.025177 1574.614624,369.940277 1554.985596,370.133789 
	C1553.632324,370.147125 1551.273804,371.932556 1551.128296,373.109802 
	C1550.424438,378.799805 1550.102417,384.561493 1550.043457,390.301880 
	C1549.906860,403.609619 1549.961304,416.919830 1550.015991,430.228760 
	C1550.044434,437.146423 1550.942871,437.997101 1557.532715,437.998688 
	C1563.521851,438.000122 1569.510864,437.998962 1576.500000,437.998932 
z"/>
<path fill="#FC5D19" opacity="1.000000" stroke="none" 
	d="
M1836.468628,449.000000 
	C1835.331299,448.332581 1834.732910,447.570312 1833.982056,447.013428 
	C1829.584473,443.751190 1826.796387,440.002045 1826.885376,433.944977 
	C1827.186279,413.466095 1826.993774,392.980072 1827.003418,372.496765 
	C1827.006592,365.693848 1833.620972,359.008575 1840.361938,359.004547 
	C1860.512207,358.992523 1880.662354,359.000305 1900.812622,359.000275 
	C1912.405273,359.000275 1918.073608,365.664764 1916.514038,378.000000 
	C1914.628174,378.000000 1912.674805,378.024872 1910.722168,377.991821 
	C1909.254639,377.967010 1907.788330,377.867798 1906.371826,377.803955 
	C1905.540405,370.001343 1905.540405,370.001129 1897.489258,370.001068 
	C1879.837036,370.000885 1862.184692,369.993835 1844.532471,370.004883 
	C1838.539795,370.008636 1838.007080,370.550873 1838.003906,376.621979 
	C1837.994507,394.940369 1838.100342,413.259705 1837.931519,431.576538 
	C1837.888672,436.226624 1839.390381,438.120819 1844.232788,438.072906 
	C1862.715942,437.890015 1881.202881,437.893982 1899.686157,438.071167 
	C1904.446045,438.116791 1906.259155,436.395111 1906.063721,431.655579 
	C1905.803711,425.350586 1905.999390,419.026855 1905.999390,412.213837 
	C1898.756226,412.213837 1891.689575,412.213837 1884.316650,412.213837 
	C1884.316650,408.335846 1884.316650,404.946381 1884.316650,401.274414 
	C1895.074951,401.274414 1905.795532,401.274414 1916.992676,401.274414 
	C1916.992676,413.701660 1917.645630,426.032379 1916.588989,438.214783 
	C1916.277710,441.804047 1911.129395,444.973816 1908.098877,448.667908 
	C1884.312378,449.000000 1860.624878,449.000000 1836.468628,449.000000 
z"/>
<path fill="#FC5D19" opacity="1.000000" stroke="none" 
	d="
M1970.468628,449.000000 
	C1970.000000,419.200165 1970.000000,389.400299 1970.000000,359.300934 
	C1997.702637,359.300934 2025.091187,359.300934 2052.740234,359.300934 
	C2052.740234,362.784332 2052.740234,366.176422 2052.740234,369.879730 
	C2028.944580,369.879730 2005.336060,369.879730 1981.364624,369.879730 
	C1981.364624,379.235931 1981.364624,388.295471 1981.364624,397.999023 
	C1984.852661,397.999023 1988.454102,397.999054 1992.055542,397.999054 
	C2005.886230,397.999054 2019.723389,398.242798 2033.544189,397.873383 
	C2038.725830,397.734894 2039.106812,400.049011 2039.111450,404.149109 
	C2039.116089,408.134033 2038.568481,410.187836 2033.747314,410.110321 
	C2016.426147,409.831757 1999.097900,410.000977 1981.386353,410.000977 
	C1981.386353,419.190399 1981.386353,428.250977 1981.386353,437.803101 
	C2004.952271,437.803101 2028.680054,437.803101 2053.000000,437.803101 
	C2053.000000,441.531891 2053.000000,444.802948 2053.000000,448.536987 
	C2025.645752,449.000000 1998.291504,449.000000 1970.468628,449.000000 
z"/>
<path fill="#FC5D19" opacity="1.000000" stroke="none" 
	d="
M1239.468628,449.000000 
	C1239.000000,419.200134 1239.000000,389.400299 1239.000000,359.300903 
	C1266.702637,359.300903 1294.091187,359.300903 1321.740479,359.300903 
	C1321.740479,362.784241 1321.740479,366.176361 1321.740479,369.879700 
	C1297.944580,369.879700 1274.336182,369.879700 1250.364746,369.879700 
	C1250.364746,379.235840 1250.364746,388.295410 1250.364746,397.999023 
	C1253.852539,397.999023 1257.453979,397.999054 1261.055420,397.999054 
	C1274.886108,397.999054 1288.723389,398.242767 1302.544189,397.873383 
	C1307.725830,397.734863 1308.106812,400.048920 1308.111450,404.149048 
	C1308.115967,408.133789 1307.568726,410.187836 1302.747437,410.110291 
	C1285.426270,409.831726 1268.098022,410.000977 1250.386353,410.000977 
	C1250.386353,419.190369 1250.386353,428.250946 1250.386353,437.803131 
	C1273.952271,437.803131 1297.680054,437.803131 1322.000000,437.803131 
	C1322.000000,441.531982 1322.000000,444.802979 1322.000000,448.536987 
	C1294.645752,449.000000 1267.291504,449.000000 1239.468628,449.000000 
z"/>
<path fill="#FC5D19" opacity="1.000000" stroke="none" 
	d="
M1409.458008,449.000000 
	C1409.000000,419.214539 1409.000000,389.429077 1409.000000,359.322388 
	C1436.645142,359.322388 1464.020264,359.322388 1491.698242,359.322388 
	C1491.698242,362.695953 1491.698242,366.087128 1491.698242,369.952820 
	C1467.927612,369.952820 1444.209839,369.952820 1420.248779,369.952820 
	C1420.248779,379.351166 1420.248779,388.286743 1420.248779,397.998993 
	C1421.875488,397.998993 1423.618896,397.998962 1425.362305,397.998962 
	C1441.181885,397.998962 1457.005005,398.187286 1472.818970,397.887421 
	C1477.737671,397.794128 1478.191040,400.007477 1478.084106,403.918304 
	C1477.984497,407.551971 1478.214111,410.220184 1472.986694,410.123413 
	C1455.533813,409.800415 1438.071289,410.000977 1420.000000,410.000977 
	C1420.000000,422.883423 1420.000000,435.473053 1420.000000,448.531342 
	C1416.638672,449.000000 1413.277466,449.000000 1409.458008,449.000000 
z"/>
<path fill="#FFFFFF" opacity="1.000000" stroke="none" 
	d="
M1092.468506,449.000000 
	C1095.078125,439.814606 1097.973022,430.562714 1101.275391,421.458710 
	C1106.895874,405.964630 1112.772583,390.563538 1118.973145,373.968384 
	C1128.199463,399.333771 1137.091553,423.779755 1145.991699,448.612854 
	C1128.312378,449.000000 1110.624878,449.000000 1092.468506,449.000000 
z"/>
<path fill="#FFFFFF" opacity="1.000000" stroke="none" 
	d="
M2180.468750,449.000000 
	C2183.078125,439.814667 2185.973145,430.562927 2189.275635,421.458954 
	C2194.895752,405.964752 2200.772705,390.563477 2206.973389,373.967834 
	C2216.199951,399.333466 2225.091797,423.779572 2233.991943,448.612823 
	C2216.312500,449.000000 2198.625000,449.000000 2180.468750,449.000000 
z"/>
<path fill="#FC5D19" opacity="1.000000" stroke="none" 
	d="
M2612.468750,449.000000 
	C2612.000000,418.892792 2612.000000,388.785614 2612.000000,358.846619 
	C2612.492188,358.482147 2612.737061,358.143860 2613.002441,358.126862 
	C2622.999756,357.484253 2623.000000,357.488220 2623.000000,367.574463 
	C2623.000000,389.044983 2623.000000,410.515472 2623.000000,431.985992 
	C2623.000000,433.789978 2623.000000,435.593994 2623.000000,437.998993 
	C2625.069824,437.998993 2626.835938,437.998993 2628.601807,437.998993 
	C2650.904541,437.999023 2673.207031,437.998901 2695.509766,437.999084 
	C2702.999756,437.999146 2702.999756,437.999481 2703.000000,445.593567 
	C2703.000000,446.425751 2703.000000,447.257965 2703.000000,448.545074 
	C2672.979248,449.000000 2642.958252,449.000000 2612.468750,449.000000 
z"/>
<path fill="#FFFFFF" opacity="1.000000" stroke="none" 
	d="
M1693.468628,449.000000 
	C1693.000000,438.209717 1693.000000,427.419434 1693.000000,416.017456 
	C1705.351318,416.017456 1717.486938,415.359985 1729.465332,416.443268 
	C1732.787354,416.743713 1735.839722,422.041779 1738.671631,425.342346 
	C1745.166626,432.912140 1751.449463,440.664001 1757.909180,448.670959 
	C1736.645752,449.000000 1715.291504,449.000000 1693.468628,449.000000 
z"/>
<path fill="#FFFFFF" opacity="1.000000" stroke="none" 
	d="
M2478.468750,449.000000 
	C2478.000000,438.209625 2478.000000,427.419250 2478.000000,416.017487 
	C2490.351074,416.017487 2502.487061,415.360046 2514.465332,416.443359 
	C2517.787354,416.743774 2520.839600,422.042114 2523.671631,425.342712 
	C2530.166260,432.912506 2536.449219,440.664185 2542.909180,448.671021 
	C2521.645752,449.000000 2500.291748,449.000000 2478.468750,449.000000 
z"/>
<path fill="#808080" opacity="1.000000" stroke="none" 
	d="
M977.000000,132.000000 
	C977.000000,161.112656 977.000000,189.725296 977.000000,218.337952 
	C976.760620,218.337219 976.521240,218.336487 976.281860,218.335754 
	C976.281860,158.850159 976.281860,99.364571 976.281860,39.878979 
	C976.521240,39.877239 976.760620,39.875500 977.000000,39.873760 
	C977.000000,70.415840 977.000000,100.957916 977.000000,132.000000 
z"/>
<path fill="#E1E1E1" opacity="1.000000" stroke="none" 
	d="
M3410.000000,111.975090 
	C3410.000000,106.716248 3410.000000,101.950386 3410.000000,97.184532 
	C3410.226807,97.185196 3410.453857,97.185860 3410.680664,97.186523 
	C3410.680664,105.730743 3410.680664,114.274963 3410.680664,122.819183 
	C3410.453857,122.826088 3410.226807,122.832985 3410.000000,122.839882 
	C3410.000000,119.382614 3410.000000,115.925346 3410.000000,111.975090 
z"/>
<path fill="#FFFFFF" opacity="1.000000" stroke="none" 
	d="
M2488.154053,370.001099 
	C2505.967529,370.001007 2523.301514,370.109283 2540.632324,369.929596 
	C2545.346924,369.880707 2547.237305,371.505737 2547.067871,376.298553 
	C2546.809082,383.622498 2547.035400,390.962555 2546.988037,398.295319 
	C2546.954346,403.485962 2545.460693,404.979370 2540.224365,404.988159 
	C2522.058350,405.018738 2503.892090,404.967072 2485.726074,405.020477 
	C2480.473877,405.035919 2478.527100,403.541107 2478.120850,397.684784 
	C2477.626221,390.552704 2477.829834,383.354462 2478.062988,376.195648 
	C2478.223633,371.266479 2480.463135,370.001984 2488.154053,370.001099 
z"/>
<path fill="#FFFFFF" opacity="1.000000" stroke="none" 
	d="
M1738.999756,370.001099 
	C1745.165161,370.001007 1750.833496,370.113983 1756.494873,369.962982 
	C1760.584106,369.853943 1762.120728,371.673248 1762.042358,375.658112 
	C1761.894897,383.153503 1762.030396,390.654022 1761.989502,398.152100 
	C1761.960449,403.494904 1760.558960,404.975525 1755.369751,404.985870 
	C1737.207275,405.022095 1719.044556,404.968750 1700.882202,405.017822 
	C1694.937134,405.033875 1693.528564,403.123077 1693.135498,397.841675 
	C1692.605103,390.716064 1692.813354,383.514496 1693.075439,376.359070 
	C1693.225586,372.261871 1695.306519,369.863190 1700.009644,369.934296 
	C1712.837158,370.128326 1725.669434,370.001099 1738.999756,370.001099 
z"/>
<path fill="#FFFFFF" opacity="1.000000" stroke="none" 
	d="
M2760.000000,411.000000 
	C2760.000000,399.020874 2760.125732,387.539673 2759.937744,376.063629 
	C2759.863770,371.545959 2761.583984,369.902893 2766.082275,369.938721 
	C2784.713867,370.087250 2803.351562,370.220154 2821.977539,369.858856 
	C2827.137939,369.758759 2828.912109,372.026794 2828.941650,376.288055 
	C2829.069336,394.753571 2829.065674,413.220978 2828.944336,431.686584 
	C2828.916260,435.951874 2827.184814,438.242126 2822.002930,438.141296 
	C2803.377197,437.778900 2784.739258,437.913422 2766.107666,438.061035 
	C2761.631592,438.096466 2759.792725,436.503632 2759.941895,431.960907 
	C2760.165527,425.147308 2760.000000,418.320923 2760.000000,411.000000 
z"/>
<path fill="#FFFFFF" opacity="1.000000" stroke="none" 
	d="
M2358.000000,437.998932 
	C2352.509033,437.998962 2347.518311,438.000092 2342.527344,437.998718 
	C2335.943359,437.996857 2335.044189,437.143585 2335.015869,430.223389 
	C2334.961670,416.914490 2334.906982,403.604248 2335.043457,390.296539 
	C2335.102295,384.556152 2335.424561,378.794464 2336.128662,373.104523 
	C2336.274170,371.928711 2338.635742,370.146790 2339.990723,370.133514 
	C2359.619873,369.940308 2379.251465,370.025208 2398.882324,369.979126 
	C2402.397461,369.970856 2404.031006,371.448425 2404.022217,375.030670 
	C2403.974365,394.328796 2403.968018,413.627167 2404.025635,432.925232 
	C2404.037354,436.867584 2402.043945,438.054321 2398.427246,438.031769 
	C2385.118652,437.948853 2371.809082,437.998901 2358.000000,437.998932 
z"/>
<path fill="#FFFFFF" opacity="1.000000" stroke="none" 
	d="
M1576.000000,437.998932 
	C1569.510864,437.998962 1563.521851,438.000122 1557.532715,437.998688 
	C1550.942871,437.997101 1550.044434,437.146423 1550.015991,430.228760 
	C1549.961304,416.919830 1549.906860,403.609619 1550.043457,390.301880 
	C1550.102417,384.561493 1550.424438,378.799805 1551.128296,373.109802 
	C1551.273804,371.932556 1553.632324,370.147125 1554.985596,370.133789 
	C1574.614624,369.940277 1594.246216,370.025177 1613.877197,369.979187 
	C1617.388306,369.970978 1619.030640,371.439789 1619.021851,375.025330 
	C1618.974121,394.323456 1618.967773,413.621826 1619.025146,432.919891 
	C1619.036987,436.856903 1617.053467,438.057404 1613.432617,438.031952 
	C1601.122314,437.945435 1588.810913,437.998901 1576.000000,437.998932 
z"/>
</svg>