<svg version="1.1" id="Layer_1" xmlns="http://www.w3.org/2000/svg" xmlns:xlink="http://www.w3.org/1999/xlink" x="0px" y="0px"
	 width="100%" viewBox="0 0 4030 448" enable-background="new 0 0 4030 448" xml:space="preserve">
<path fill="#FFFFFF" opacity="1.000000" stroke="none" 
	d="
M4031.000000,39.000000 
	C4031.000000,56.020893 4031.000000,73.041786 4030.531250,90.526535 
	C3958.155762,90.990387 3886.248779,90.990387 3814.326660,90.990387 
	C3814.326660,103.963921 3814.326660,116.352661 3814.326660,129.000000 
	C3886.768555,129.000000 3958.884277,129.000000 4031.000000,129.000000 
	C4031.000000,146.354233 4031.000000,163.708450 4030.531250,181.530716 
	C3958.155762,181.998749 3886.249023,181.998749 3814.326660,181.998749 
	C3814.326660,194.964890 3814.326660,207.353806 3814.326660,220.000000 
	C3886.768555,220.000000 3958.884277,220.000000 4031.000000,220.000000 
	C4031.000000,296.307343 4031.000000,372.614716 4031.000000,449.000000 
	C3678.979248,449.000000 3326.958252,449.000000 2974.582764,448.668457 
	C2976.185303,446.742706 2978.627686,445.487671 2980.019043,443.497803 
	C2987.465332,432.848450 2984.242676,420.892212 2982.866211,409.589600 
	C2981.955566,402.112946 2974.678223,398.091766 2965.862549,398.035370 
	C2947.201172,397.915985 2928.538086,397.930603 2909.876709,398.051117 
	C2905.643066,398.078430 2903.797363,396.530273 2903.954102,392.213531 
	C2904.147217,386.888519 2904.210205,381.540375 2903.938232,376.222229 
	C2903.689209,371.350708 2905.804932,369.888306 2910.442627,369.931976 
	C2928.436523,370.101562 2946.433350,370.001038 2964.428955,370.001007 
	C2972.301514,370.000977 2972.380615,370.067963 2973.402344,377.748810 
	C2976.802734,377.748810 2980.221680,377.748810 2983.609619,377.748810 
	C2984.887695,365.962036 2978.739502,359.000336 2967.301270,359.000275 
	C2947.306152,359.000183 2927.310547,358.947876 2907.316162,359.075409 
	C2905.146973,359.089203 2902.762695,359.740875 2900.860840,360.790222 
	C2895.208740,363.908875 2892.731689,368.890564 2892.960205,375.388367 
	C2893.153320,380.880249 2893.376709,386.416077 2892.916016,391.875916 
	C2892.127441,401.222046 2898.777588,410.104309 2911.190430,410.029816 
	C2929.685303,409.918823 2948.182617,410.123169 2966.675781,409.914581 
	C2971.264893,409.862823 2972.976807,411.797485 2972.994629,415.971802 
	C2973.017578,421.303741 2973.022461,426.635986 2972.992676,431.967865 
	C2972.969727,436.084717 2971.380615,438.142273 2966.736084,438.086731 
	C2948.742920,437.871490 2930.745605,437.999084 2912.750000,437.998932 
	C2904.761963,437.998871 2904.761963,437.998810 2903.429199,430.316772 
	C2900.016846,430.319397 2896.608643,430.319397 2893.228760,430.319397 
	C2892.617432,439.890289 2893.810059,442.126923 2903.000000,449.000000 
	C2878.979248,449.000000 2854.958252,449.000000 2830.583984,448.668274 
	C2836.286865,445.600006 2839.767578,440.611176 2839.873779,434.284271 
	C2840.213135,414.137268 2840.125977,393.979767 2839.931885,373.828918 
	C2839.863770,366.740295 2833.273926,358.606659 2824.510742,358.813416 
	C2801.206543,359.363159 2777.880859,359.000183 2754.563721,359.000214 
	C2752.800537,359.000214 2751.037354,359.000183 2749.000000,359.000183 
	C2749.000000,389.421600 2749.000000,419.210815 2749.000000,449.000000 
	C2733.979248,449.000000 2718.958252,449.000000 2703.468750,448.545074 
	C2703.000000,447.257965 2703.000244,446.425751 2703.000244,445.593567 
	C2703.000244,437.999420 2703.000244,437.999054 2695.509766,437.998993 
	C2673.207031,437.998810 2650.904297,437.998993 2628.601562,437.998962 
	C2626.835693,437.998962 2625.069824,437.998932 2623.000000,437.998932 
	C2623.000000,435.593872 2623.000000,433.789886 2623.000000,431.985870 
	C2623.000000,410.515350 2623.000000,389.044800 2623.000000,367.574280 
	C2623.000000,357.488129 2622.999756,357.484161 2613.002441,358.126648 
	C2612.736816,358.143646 2612.491943,358.481964 2612.000000,358.846252 
	C2612.000000,388.785553 2612.000000,418.892792 2612.000000,449.000000 
	C2594.312500,449.000000 2576.625000,449.000000 2558.380615,448.672974 
	C2548.841553,437.835236 2539.859131,427.324493 2530.181885,416.000275 
	C2535.698730,416.000275 2539.687500,416.069031 2543.672852,415.985413 
	C2551.053955,415.830505 2557.984863,408.815704 2557.996338,401.547516 
	C2558.011475,392.224030 2557.511963,382.866272 2558.161133,373.588226 
	C2558.643799,366.693970 2550.276123,358.693146 2543.448975,358.823059 
	C2519.482910,359.279236 2495.502930,358.995544 2471.528076,359.011749 
	C2470.095459,359.012695 2468.663086,359.180481 2467.000000,359.285156 
	C2467.000000,389.436615 2467.000000,419.218292 2467.000000,449.000000 
	C2446.645752,449.000000 2426.291748,449.000000 2405.583984,448.667664 
	C2411.874268,445.351562 2415.136963,440.432343 2415.063477,432.936005 
	C2414.873779,413.611023 2415.000244,394.282959 2414.999756,374.956116 
	C2414.999268,364.932953 2409.163330,359.001190 2399.299072,359.000549 
	C2379.805664,358.999329 2360.312012,359.000244 2340.818604,359.000214 
	C2330.036621,359.000214 2324.007568,365.084839 2324.002441,376.002197 
	C2323.993896,393.496338 2324.312012,410.998322 2323.870361,428.481323 
	C2323.644287,437.433594 2326.164307,444.356140 2334.000000,449.000000 
	C2304.645752,449.000000 2275.291748,449.000000 2245.475098,448.602173 
	C2245.114014,447.563660 2245.113525,446.886047 2245.331055,446.287720 
	C2255.837646,417.393402 2266.363281,388.505859 2277.109619,359.005280 
	C2273.516113,359.005280 2270.236816,358.796661 2267.011475,359.122437 
	C2265.934814,359.231140 2264.467773,360.513000 2264.072998,361.587097 
	C2255.865723,383.918396 2247.787354,406.297089 2239.627197,428.821381 
	C2239.171387,428.089020 2238.721436,427.579437 2238.503174,426.984894 
	C2231.310791,407.374054 2224.056152,387.785187 2217.003174,368.124237 
	C2213.632080,358.727234 2213.801758,358.556976 2203.406738,359.121002 
	C2201.915527,359.201904 2199.694824,360.585785 2199.193604,361.895386 
	C2193.984131,375.507782 2189.034424,389.220062 2184.061035,402.922211 
	C2180.947754,411.499176 2177.916992,420.106110 2174.520508,429.619812 
	C2167.106689,409.296021 2159.935547,390.027100 2153.062256,370.652588 
	C2148.691650,358.333252 2148.889893,358.262390 2137.739990,359.176849 
	C2137.591797,359.188995 2137.451660,359.301086 2136.979004,359.516174 
	C2137.980713,362.184631 2139.010254,364.874176 2140.002441,367.577423 
	C2146.587158,385.517914 2153.245361,403.431946 2159.708984,421.416046 
	C2162.989746,430.544647 2165.914307,439.801239 2169.000000,449.000000 
	C2130.645752,449.000000 2092.291748,449.000000 2053.468750,448.536987 
	C2053.000000,444.802979 2053.000000,441.531982 2053.000000,437.803223 
	C2028.680420,437.803223 2004.952393,437.803223 1981.386353,437.803223 
	C1981.386353,428.251068 1981.386353,419.190460 1981.386353,410.001038 
	C1999.097900,410.001038 2016.426270,409.831787 2033.747437,410.110352 
	C2038.568604,410.187897 2039.116211,408.134003 2039.111450,404.149170 
	C2039.106689,400.049530 2038.726440,397.734711 2033.544434,397.873230 
	C2019.723633,398.242706 2005.886353,397.998962 1992.055664,397.998962 
	C1988.454224,397.998962 1984.852783,397.998962 1981.364746,397.998962 
	C1981.364746,388.295441 1981.364746,379.235901 1981.364746,369.879700 
	C2005.336304,369.879700 2028.944824,369.879700 2052.740234,369.879700 
	C2052.740234,366.176331 2052.740234,362.784271 2052.740234,359.300842 
	C2025.091064,359.300842 1997.702515,359.300842 1970.000000,359.300842 
	C1970.000000,389.400208 1970.000000,419.200104 1970.000000,449.000000 
	C1949.645752,449.000000 1929.291504,449.000000 1908.567505,448.667908 
	C1911.129395,444.973816 1916.277710,441.804047 1916.588989,438.214722 
	C1917.645752,426.032318 1916.992798,413.701630 1916.992798,401.274353 
	C1905.795532,401.274353 1895.074951,401.274353 1884.316528,401.274353 
	C1884.316528,404.946320 1884.316528,408.335785 1884.316528,412.213745 
	C1891.689087,412.213745 1898.755981,412.213745 1905.999268,412.213745 
	C1905.999268,419.026367 1905.803589,425.350281 1906.063599,431.655426 
	C1906.258911,436.394958 1904.446045,438.116699 1899.686035,438.071075 
	C1881.202881,437.893890 1862.715820,437.889923 1844.232788,438.072845 
	C1839.390137,438.120758 1837.888672,436.226257 1837.931519,431.576294 
	C1838.100342,413.259460 1837.994629,394.940125 1838.004028,376.621735 
	C1838.007202,370.550873 1838.539795,370.008759 1844.532959,370.005005 
	C1862.185181,369.993927 1879.837524,370.000916 1897.489746,370.001068 
	C1905.540039,370.001129 1905.540039,370.001404 1906.393066,378.000000 
	C1907.966919,378.000000 1909.594482,378.000000 1911.222046,378.000000 
	C1913.008423,378.000000 1914.794922,378.000000 1916.514282,378.000000 
	C1918.073242,365.663940 1912.405151,359.000183 1900.812378,359.000183 
	C1880.662109,359.000214 1860.511841,358.992462 1840.361572,359.004486 
	C1833.620728,359.008545 1827.006592,365.693848 1827.003418,372.496979 
	C1826.993774,392.980286 1827.186279,413.466309 1826.885254,433.945190 
	C1826.796265,440.002441 1829.584717,443.751160 1833.982056,447.013489 
	C1834.732910,447.570374 1835.331299,448.332611 1836.000000,449.000000 
	C1815.312378,449.000000 1794.624878,449.000000 1773.380493,448.672974 
	C1763.841431,437.835175 1754.859253,427.324402 1745.181885,416.000275 
	C1750.698730,416.000275 1754.687134,416.069031 1758.672119,415.985443 
	C1766.053345,415.830627 1772.984497,408.815796 1772.996338,401.547791 
	C1773.011353,392.224304 1772.511719,382.866547 1773.161011,373.588470 
	C1773.643555,366.692413 1765.274780,358.693207 1758.449219,358.823090 
	C1734.483154,359.279236 1710.503052,358.995544 1686.528198,359.011780 
	C1685.095703,359.012756 1683.663208,359.180573 1682.000000,359.285278 
	C1682.000000,389.436615 1682.000000,419.218292 1682.000000,449.000000 
	C1661.645752,449.000000 1641.291504,449.000000 1620.583740,448.667664 
	C1626.874634,445.351715 1630.136841,440.432007 1630.063354,432.935791 
	C1629.873657,413.610870 1630.000366,394.282837 1629.999756,374.956055 
	C1629.999390,364.932709 1624.163574,359.001190 1614.299194,359.000549 
	C1594.805786,358.999329 1575.312500,359.000244 1555.819092,359.000214 
	C1545.037964,359.000183 1539.007202,365.085846 1539.001709,376.002075 
	C1538.992920,393.496155 1539.310913,410.998108 1538.869873,428.481049 
	C1538.644043,437.433044 1541.163818,444.356293 1549.000000,449.000000 
	C1506.312378,449.000000 1463.624878,449.000000 1420.468628,448.531342 
	C1420.000000,435.473053 1420.000000,422.883423 1420.000000,410.001007 
	C1438.071289,410.001007 1455.533813,409.800415 1472.986816,410.123413 
	C1478.214233,410.220154 1477.984619,407.552002 1478.084106,403.918274 
	C1478.191162,400.007233 1477.737671,397.794159 1472.819092,397.887451 
	C1457.005127,398.187225 1441.181885,397.998962 1425.362305,397.998962 
	C1423.618896,397.998962 1421.875488,397.998962 1420.248779,397.998962 
	C1420.248779,388.286713 1420.248779,379.351135 1420.248779,369.952789 
	C1444.209961,369.952789 1467.927734,369.952789 1491.698364,369.952789 
	C1491.698364,366.087036 1491.698364,362.695831 1491.698364,359.322266 
	C1464.020264,359.322266 1436.645142,359.322266 1409.000000,359.322266 
	C1409.000000,389.429016 1409.000000,419.214508 1409.000000,449.000000 
	C1380.312378,449.000000 1351.624878,449.000000 1322.468628,448.536987 
	C1322.000000,444.803009 1322.000000,441.532013 1322.000000,437.803223 
	C1297.680298,437.803223 1273.952515,437.803223 1250.386353,437.803223 
	C1250.386353,428.251068 1250.386353,419.190460 1250.386353,410.001038 
	C1268.097900,410.001038 1285.426270,409.831787 1302.747437,410.110352 
	C1307.568726,410.187866 1308.116455,408.133942 1308.111694,404.149139 
	C1308.106934,400.049347 1307.726196,397.734680 1302.544312,397.873230 
	C1288.723511,398.242676 1274.886230,397.998962 1261.055542,397.998962 
	C1257.454102,397.998962 1253.852661,397.998962 1250.364746,397.998962 
	C1250.364746,388.295441 1250.364746,379.235901 1250.364746,369.879730 
	C1274.336182,369.879730 1297.944702,369.879730 1321.740479,369.879730 
	C1321.740479,366.176392 1321.740479,362.784241 1321.740479,359.300842 
	C1294.091187,359.300842 1266.702637,359.300842 1239.000000,359.300842 
	C1239.000000,389.400208 1239.000000,419.200104 1239.000000,449.000000 
	C1211.979126,449.000000 1184.958130,449.000000 1157.475220,448.602173 
	C1157.114258,447.563599 1157.113403,446.885864 1157.330933,446.287537 
	C1167.837402,417.393524 1178.362793,388.506348 1189.109375,359.005280 
	C1185.516968,359.005280 1182.237793,358.796722 1179.012695,359.122406 
	C1177.935913,359.231171 1176.468140,360.511932 1176.073486,361.585663 
	C1167.866089,383.917603 1159.787354,406.296906 1151.627441,428.821136 
	C1151.171753,428.089417 1150.721680,427.579926 1150.503540,426.985352 
	C1143.310791,407.374542 1136.056396,387.785706 1129.003296,368.124664 
	C1125.631958,358.727264 1125.801758,358.557007 1115.406982,359.120972 
	C1113.915649,359.201904 1111.694824,360.585632 1111.193604,361.895294 
	C1105.984009,375.507690 1101.034546,389.219971 1096.061035,402.922028 
	C1092.947754,411.499115 1089.916992,420.106110 1086.520630,429.619659 
	C1079.106934,409.296112 1071.935181,390.027344 1065.062012,370.652679 
	C1060.691895,358.333740 1060.890747,358.262573 1049.740112,359.176727 
	C1049.591919,359.188904 1049.451782,359.300964 1048.978760,359.516052 
	C1049.979736,362.182129 1051.009766,364.872833 1052.002319,367.577209 
	C1058.587036,385.517517 1065.244995,403.431519 1071.708374,421.415405 
	C1074.989258,430.544250 1077.914307,439.801025 1081.000000,449.000000 
	C721.120422,449.000000 361.240875,449.000000 1.000000,449.000000 
	C1.000000,372.979492 1.000000,296.958405 1.468643,220.472748 
	C15.863668,220.008163 29.790051,220.008163 44.189507,220.008163 
	C44.189507,195.692230 44.189507,171.973221 44.189507,148.017868 
	C46.483192,148.017868 48.297161,148.017883 50.111130,148.017883 
	C77.761894,148.017883 105.413696,148.141876 133.062546,147.911407 
	C138.477264,147.866272 141.433670,148.901123 144.325790,154.374969 
	C154.835861,174.267090 166.546097,193.521271 177.475266,213.198486 
	C180.180344,218.068756 182.903732,220.590836 189.016617,220.189590 
	C199.465576,219.503769 209.992126,220.000412 220.486099,220.000412 
	C224.244125,220.000412 228.002167,220.000397 232.582474,220.000397 
	C218.329620,194.765244 204.507401,170.292526 190.585464,145.643295 
	C191.601578,145.307602 192.045471,145.141174 192.500259,145.013565 
	C209.637070,140.206009 223.756927,130.992203 234.217911,116.441162 
	C247.418289,98.079681 251.306732,77.705971 246.941406,55.719250 
	C244.666550,44.261471 239.731354,33.807152 232.251785,24.883810 
	C223.473984,14.411619 212.854965,6.118372 200.000000,1.000000 
	C319.687561,1.000000 439.375122,1.000000 559.430725,1.343594 
	C552.789673,14.319477 545.848755,26.990179 538.754883,39.574669 
	C529.108337,56.687626 519.315063,73.717834 509.642181,90.816025 
	C503.243164,102.127228 497.016266,113.536079 490.583282,124.827682 
	C482.807434,138.476318 474.858643,152.026291 467.053009,165.658112 
	C460.127655,177.752747 453.269928,189.886383 446.434082,202.031952 
	C443.207153,207.765396 440.101471,213.567078 436.578033,220.000275 
	C438.863007,220.000275 440.472443,220.000259 442.081879,220.000259 
	C455.580444,220.000244 469.083832,219.799316 482.574738,220.120834 
	C486.701569,220.219193 488.614227,218.605667 490.429626,215.261322 
	C498.176147,200.990921 506.067291,186.796585 514.086243,172.677017 
	C527.450012,149.146393 541.008728,125.726494 554.378113,102.199036 
	C565.143372,83.254364 575.750122,64.219612 586.611328,44.897213 
	C599.206360,67.117882 611.620056,88.927429 623.941101,110.789230 
	C631.737244,124.622284 639.325439,138.572571 647.131165,152.400116 
	C659.424744,174.177628 671.803955,195.906937 684.234924,217.606247 
	C684.833984,218.651871 686.273071,219.888519 687.331299,219.898087 
	C703.445618,220.043732 719.561707,219.999359 736.273743,219.999359 
	C735.361755,218.005646 734.799561,216.524323 734.038818,215.153229 
	C728.064758,204.386871 722.077393,193.627731 716.045227,182.893845 
	C710.252991,172.586945 704.415283,162.305557 698.574158,152.026230 
	C689.051636,135.268463 679.473694,118.542122 669.988159,101.763519 
	C662.175720,87.944649 654.513733,74.040695 646.694336,60.225853 
	C635.506287,40.459347 624.235474,20.739676 613.000000,1.000008 
	C701.020874,1.000000 789.041809,1.000000 877.530884,1.468657 
	C877.999146,14.196660 877.999146,26.456005 877.999146,39.113060 
	C911.073303,39.113060 943.527710,39.113060 975.990234,39.571430 
	C975.998901,98.005821 975.992004,155.981842 976.037048,213.957840 
	C976.038330,215.643967 976.589294,217.329666 977.119141,219.387665 
	C991.112793,219.759766 1004.871155,219.759766 1019.090576,219.759766 
	C1019.090576,159.428223 1019.090576,99.393654 1019.090576,38.878304 
	C1051.932495,38.878304 1084.313477,38.878304 1117.000000,38.878304 
	C1117.000000,25.931396 1117.000000,13.465698 1117.000000,1.000000 
	C1181.687622,1.000000 1246.375122,1.000000 1311.531372,1.468657 
	C1312.000000,74.519646 1312.000000,147.101974 1312.000000,219.660431 
	C1326.324585,219.660431 1340.048462,219.660431 1354.261475,219.660431 
	C1354.261475,189.265915 1354.261475,159.209335 1354.261475,129.234634 
	C1405.022217,129.234634 1455.287354,129.234634 1506.047363,129.234634 
	C1506.047363,159.521240 1506.047363,189.577896 1506.047363,219.687103 
	C1520.268677,219.687103 1533.991821,219.687103 1548.000000,219.687103 
	C1548.000000,146.582596 1548.000000,73.791298 1548.000000,1.000000 
	C1707.687622,1.000000 1867.375122,1.000000 2027.531372,1.468657 
	C2028.000000,74.507851 2028.000000,147.078384 2028.000000,219.680710 
	C2042.285889,219.680710 2056.007080,219.680710 2070.212646,219.680710 
	C2070.212646,189.311951 2070.212646,159.260239 2070.212646,128.740540 
	C2128.740967,128.740540 2186.781494,128.740540 2244.770264,128.740540 
	C2244.770264,115.993462 2244.770264,103.723137 2244.770264,90.981125 
	C2186.502197,90.981125 2128.461670,90.981125 2070.284180,90.981125 
	C2070.284180,73.452454 2070.284180,56.399857 2070.284180,38.873489 
	C2128.607422,38.873489 2186.647949,38.873489 2245.000000,38.873489 
	C2245.000000,25.933746 2245.000000,13.466873 2245.000000,1.000000 
	C2344.687500,1.000000 2444.375000,1.000000 2544.340820,1.379976 
	C2535.872559,3.476489 2526.938721,4.551513 2518.417236,7.038251 
	C2498.484863,12.854805 2482.388184,24.951952 2469.230713,40.597321 
	C2462.928955,48.090988 2457.397949,56.664665 2453.428711,65.598160 
	C2445.287598,83.921959 2442.058594,103.229332 2444.851807,123.473099 
	C2446.375000,134.510147 2448.891846,145.106033 2453.621582,155.133118 
	C2460.891602,170.546707 2470.733154,183.931641 2484.139893,194.753815 
	C2502.289307,209.404312 2522.746582,218.165085 2546.042725,218.856918 
	C2568.353516,219.519501 2590.699951,218.875519 2613.028809,219.050507 
	C2624.732910,219.142197 2636.201172,218.429276 2647.573242,215.119873 
	C2663.318604,210.537781 2677.279297,203.042877 2689.413574,192.075790 
	C2699.091553,183.328842 2707.357422,173.404816 2713.567139,161.917343 
	C2720.506104,149.081314 2725.092529,135.366394 2725.851074,120.768105 
	C2726.321045,111.720367 2726.394775,102.397331 2724.730225,93.558685 
	C2722.710449,82.833603 2719.897217,71.901817 2715.212402,62.120197 
	C2708.589111,48.290878 2699.288330,36.079834 2686.966064,26.296410 
	C2674.567627,16.452333 2661.188232,8.846861 2645.804443,5.041110 
	C2639.269531,3.424460 2632.605469,2.331138 2626.000000,0.999997 
	C2723.020752,1.000000 2820.041748,1.000000 2917.531250,1.468657 
	C2918.000000,14.201617 2918.000000,26.465919 2918.000000,38.999741 
	C2920.441650,38.999741 2922.254150,38.999741 2924.066650,38.999741 
	C2977.399902,38.999805 3030.733154,38.998878 3084.066406,39.000565 
	C3099.265137,39.001045 3112.447998,47.899124 3116.880371,62.303062 
	C3123.393799,83.470116 3107.905273,104.727928 3085.467529,104.880997 
	C3031.636719,105.248222 2977.801758,104.999535 2923.968506,104.999405 
	C2922.046387,104.999405 2920.124512,104.999405 2918.396729,104.999405 
	C2918.396729,143.761612 2918.396729,181.820099 2918.396729,219.735840 
	C2932.402832,219.735840 2946.010742,219.735840 2960.122070,219.735840 
	C2960.122070,195.749069 2960.122070,172.021439 2960.122070,148.019760 
	C2991.938721,148.019760 3023.248291,147.976257 3054.556641,148.153870 
	C3056.052002,148.162354 3058.118652,149.793610 3058.938477,151.229279 
	C3071.341309,172.957977 3083.515137,194.817688 3095.982666,216.508713 
	C3096.953613,218.197739 3099.683105,219.789581 3101.641113,219.846466 
	C3112.631836,220.165894 3123.636719,220.000412 3134.636719,220.000427 
	C3139.028809,220.000427 3143.421143,220.000427 3148.868408,220.000427 
	C3134.495117,194.531357 3120.686035,170.061874 3106.839111,145.525665 
	C3108.679688,145.017227 3110.088135,144.679016 3111.464355,144.240219 
	C3126.414551,139.473022 3138.946045,131.343765 3148.783203,118.853470 
	C3158.571045,106.425468 3163.736572,92.412163 3164.958496,76.849518 
	C3165.910156,64.733116 3163.765137,52.927490 3158.852539,41.932995 
	C3154.129639,31.364557 3148.105469,21.392904 3138.176758,14.662553 
	C3131.225098,9.950272 3124.066162,5.543343 3117.000000,1.000004 
	C3226.354248,1.000000 3335.708252,1.000000 3445.350830,1.373450 
	C3443.654785,1.867063 3441.613770,1.728216 3439.694336,2.146928 
	C3417.169189,7.061319 3398.605225,18.339169 3384.664795,36.851688 
	C3373.473389,51.714207 3367.309814,68.426605 3367.038086,87.098450 
	C3366.841553,100.590576 3367.285889,114.095459 3366.928467,127.580963 
	C3366.467041,144.983215 3370.519531,161.021301 3379.426025,175.995300 
	C3387.840576,190.142441 3399.337158,200.984283 3413.618652,208.889008 
	C3428.211914,216.966354 3444.165771,219.836182 3460.634277,219.957367 
	C3483.791260,220.127792 3506.952637,220.186218 3530.106934,219.888153 
	C3537.095459,219.798172 3544.195068,218.946289 3551.021973,217.438553 
	C3571.035400,213.018570 3587.602539,202.593094 3600.620850,186.813522 
	C3608.317383,177.484634 3613.763916,166.958603 3617.201904,155.186462 
	C3620.488525,143.931900 3621.081543,132.598434 3621.012207,121.075951 
	C3620.952637,111.145897 3621.000000,101.215202 3621.000000,91.338654 
	C3581.999512,91.338654 3543.617676,91.338654 3505.379883,91.338654 
	C3505.379883,104.071632 3505.379883,116.462433 3505.379883,129.107971 
	C3529.364746,129.107971 3552.971191,129.107971 3576.420410,129.107971 
	C3576.149658,131.475342 3576.142334,133.656082 3575.626709,135.709152 
	C3572.113037,149.695541 3564.514404,161.401062 3553.161377,169.876602 
	C3546.876221,174.568756 3538.968262,177.786316 3531.300537,179.732071 
	C3523.461426,181.721191 3515.023438,181.860535 3506.844482,181.888687 
	C3491.432373,181.941727 3475.978271,181.895447 3460.616699,180.819626 
	C3448.620605,179.979492 3438.233643,174.257004 3429.553711,165.969345 
	C3417.621094,154.575745 3410.970215,140.676788 3410.908203,123.489784 
	C3410.932129,114.364677 3410.888428,105.700630 3410.916504,96.586487 
	C3411.206055,79.083427 3418.020752,65.154747 3430.655029,53.813522 
	C3441.817383,43.793167 3454.828369,38.988552 3469.746338,38.994900 
	C3510.687744,39.012318 3551.629150,39.020309 3592.570312,38.934563 
	C3594.350342,38.930836 3596.994629,38.531830 3597.772949,37.351746 
	C3605.689697,25.349566 3613.302246,13.146705 3621.000000,1.000025 
	C3685.020752,1.000000 3749.041748,1.000000 3813.531250,1.468657 
	C3814.000000,14.199386 3814.000000,26.461456 3814.000000,39.000000 
	C3886.752930,39.000000 3958.876465,39.000000 4031.000000,39.000000 
z"/>
<path fill="#FC5D19" opacity="1.000000" stroke="none" 
	d="
M2625.531250,0.999997 
	C2632.605469,2.331138 2639.269531,3.424460 2645.804443,5.041110 
	C2661.188232,8.846861 2674.567627,16.452333 2686.966064,26.296410 
	C2699.288330,36.079834 2708.589111,48.290878 2715.212402,62.120197 
	C2719.897217,71.901817 2722.710449,82.833603 2724.730225,93.558685 
	C2726.394775,102.397331 2726.321045,111.720367 2725.851074,120.768105 
	C2725.092529,135.366394 2720.506104,149.081314 2713.567139,161.917343 
	C2707.357422,173.404816 2699.091553,183.328842 2689.413574,192.075790 
	C2677.279297,203.042877 2663.318604,210.537781 2647.573242,215.119873 
	C2636.201172,218.429276 2624.732910,219.142197 2613.028809,219.050507 
	C2590.699951,218.875519 2568.353516,219.519501 2546.042725,218.856918 
	C2522.746582,218.165085 2502.289307,209.404312 2484.139893,194.753815 
	C2470.733154,183.931641 2460.891602,170.546707 2453.621582,155.133118 
	C2448.891846,145.106033 2446.375000,134.510147 2444.851807,123.473099 
	C2442.058594,103.229332 2445.287598,83.921959 2453.428711,65.598160 
	C2457.397949,56.664665 2462.928955,48.090988 2469.230713,40.597321 
	C2482.388184,24.951952 2498.484863,12.854805 2518.417236,7.038251 
	C2526.938721,4.551513 2535.872559,3.476489 2544.809570,1.379976 
	C2571.687500,1.000000 2598.375000,1.000000 2625.531250,0.999997 
M2677.001465,107.135216 
	C2676.981689,104.802513 2677.333252,102.395432 2676.883545,100.148903 
	C2673.331787,82.416824 2665.631592,67.183395 2651.150635,55.575905 
	C2638.109375,45.122746 2623.578125,39.280174 2606.906250,39.037701 
	C2593.908936,38.848671 2580.904785,39.142742 2567.907227,38.966858 
	C2547.321777,38.688297 2529.482910,45.160793 2514.761475,59.792274 
	C2497.572754,76.875839 2489.904053,97.330803 2494.075684,121.359276 
	C2499.060059,150.069656 2516.075195,169.033966 2543.616211,177.959824 
	C2551.703125,180.580612 2560.570312,181.581253 2569.120117,181.806931 
	C2583.353027,182.182617 2597.616699,181.215027 2611.870361,181.038498 
	C2622.459473,180.907364 2632.197021,177.422394 2640.965332,172.251999 
	C2658.357178,161.996185 2670.459473,147.070663 2675.232422,127.131645 
	C2676.706299,120.973839 2676.488770,114.411087 2677.001465,107.135216 
z"/>
<path fill="#FC5D19" opacity="1.000000" stroke="none" 
	d="
M3410.840332,123.950844 
	C3410.970215,140.676788 3417.621094,154.575745 3429.553711,165.969345 
	C3438.233643,174.257004 3448.620605,179.979492 3460.616699,180.819626 
	C3475.978271,181.895447 3491.432373,181.941727 3506.844482,181.888687 
	C3515.023438,181.860535 3523.461426,181.721191 3531.300537,179.732071 
	C3538.968262,177.786316 3546.876221,174.568756 3553.161377,169.876602 
	C3564.514404,161.401062 3572.113037,149.695541 3575.626709,135.709152 
	C3576.142334,133.656082 3576.149658,131.475342 3576.420410,129.107971 
	C3552.971191,129.107971 3529.364746,129.107971 3505.379883,129.107971 
	C3505.379883,116.462433 3505.379883,104.071632 3505.379883,91.338654 
	C3543.617676,91.338654 3581.999512,91.338654 3621.000000,91.338654 
	C3621.000000,101.215202 3620.952637,111.145897 3621.012207,121.075951 
	C3621.081543,132.598434 3620.488525,143.931900 3617.201904,155.186462 
	C3613.763916,166.958603 3608.317383,177.484634 3600.620850,186.813522 
	C3587.602539,202.593094 3571.035400,213.018570 3551.021973,217.438553 
	C3544.195068,218.946289 3537.095459,219.798172 3530.106934,219.888153 
	C3506.952637,220.186218 3483.791260,220.127792 3460.634277,219.957367 
	C3444.165771,219.836182 3428.211914,216.966354 3413.618652,208.889008 
	C3399.337158,200.984283 3387.840576,190.142441 3379.426025,175.995300 
	C3370.519531,161.021301 3366.467041,144.983215 3366.928467,127.580963 
	C3367.285889,114.095459 3366.841553,100.590576 3367.038086,87.098450 
	C3367.309814,68.426605 3373.473389,51.714207 3384.664795,36.851688 
	C3398.605225,18.339169 3417.169189,7.061319 3439.694336,2.146928 
	C3441.613770,1.728216 3443.654785,1.867063 3445.819580,1.373450 
	C3504.020752,1.000000 3562.041748,1.000000 3620.531250,1.000025 
	C3613.302246,13.146705 3605.689697,25.349566 3597.772949,37.351746 
	C3596.994629,38.531830 3594.350342,38.930836 3592.570312,38.934563 
	C3551.629150,39.020309 3510.687744,39.012318 3469.746338,38.994900 
	C3454.828369,38.988552 3441.817383,43.793167 3430.655029,53.813522 
	C3418.020752,65.154747 3411.206055,79.083427 3410.647217,96.898544 
	C3410.483887,106.424088 3410.662109,115.187462 3410.840332,123.950844 
z"/>
<path fill="#FC5D19" opacity="1.000000" stroke="none" 
	d="
M199.531342,1.000000 
	C212.854965,6.118372 223.473984,14.411619 232.251785,24.883810 
	C239.731354,33.807152 244.666550,44.261471 246.941406,55.719250 
	C251.306732,77.705971 247.418289,98.079681 234.217911,116.441162 
	C223.756927,130.992203 209.637070,140.206009 192.500259,145.013565 
	C192.045471,145.141174 191.601578,145.307602 190.585464,145.643295 
	C204.507401,170.292526 218.329620,194.765244 232.582474,220.000397 
	C228.002167,220.000397 224.244125,220.000412 220.486099,220.000412 
	C209.992126,220.000412 199.465576,219.503769 189.016617,220.189590 
	C182.903732,220.590836 180.180344,218.068756 177.475266,213.198486 
	C166.546097,193.521271 154.835861,174.267090 144.325790,154.374969 
	C141.433670,148.901123 138.477264,147.866272 133.062546,147.911407 
	C105.413696,148.141876 77.761894,148.017883 50.111130,148.017883 
	C48.297161,148.017883 46.483192,148.017868 44.189507,148.017868 
	C44.189507,171.973221 44.189507,195.692230 44.189507,220.008163 
	C29.790051,220.008163 15.863668,220.008163 1.468643,220.004089 
	C1.000000,195.979111 1.000000,171.958206 1.388504,147.270477 
	C1.777008,132.841339 1.777008,119.079041 1.777008,104.999435 
	C4.392557,104.999435 6.197344,104.999435 8.002131,104.999435 
	C61.335167,104.999481 114.668251,105.036072 168.001190,104.963615 
	C176.893234,104.951530 184.931534,102.095955 191.496277,95.948051 
	C201.730377,86.363747 204.834641,72.439934 199.828903,59.589615 
	C195.326324,48.030972 181.596283,39.001415 168.499069,39.000835 
	C112.666046,38.998379 56.833023,38.999920 1.000000,39.000000 
	C1.000000,26.356756 1.000000,13.713511 1.000000,1.000000 
	C67.020882,1.000000 133.041779,1.000000 199.531342,1.000000 
z"/>
<path fill="#FC5D19" opacity="1.000000" stroke="none" 
	d="
M3116.531250,1.000004 
	C3124.066162,5.543343 3131.225098,9.950272 3138.176758,14.662553 
	C3148.105469,21.392904 3154.129639,31.364557 3158.852539,41.932995 
	C3163.765137,52.927490 3165.910156,64.733116 3164.958496,76.849518 
	C3163.736572,92.412163 3158.571045,106.425468 3148.783203,118.853470 
	C3138.946045,131.343765 3126.414551,139.473022 3111.464355,144.240219 
	C3110.088135,144.679016 3108.679688,145.017227 3106.839111,145.525665 
	C3120.686035,170.061874 3134.495117,194.531357 3148.868408,220.000427 
	C3143.421143,220.000427 3139.028809,220.000427 3134.636719,220.000427 
	C3123.636719,220.000412 3112.631836,220.165894 3101.641113,219.846466 
	C3099.683105,219.789581 3096.953613,218.197739 3095.982666,216.508713 
	C3083.515137,194.817688 3071.341309,172.957977 3058.938477,151.229279 
	C3058.118652,149.793610 3056.052002,148.162354 3054.556641,148.153870 
	C3023.248291,147.976257 2991.938721,148.019760 2960.122070,148.019760 
	C2960.122070,172.021439 2960.122070,195.749069 2960.122070,219.735840 
	C2946.010742,219.735840 2932.402832,219.735840 2918.396729,219.735840 
	C2918.396729,181.820099 2918.396729,143.761612 2918.396729,104.999405 
	C2920.124512,104.999405 2922.046387,104.999405 2923.968506,104.999405 
	C2977.801758,104.999535 3031.636719,105.248222 3085.467529,104.880997 
	C3107.905273,104.727928 3123.393799,83.470116 3116.880371,62.303062 
	C3112.447998,47.899124 3099.265137,39.001045 3084.066406,39.000565 
	C3030.733154,38.998878 2977.399902,38.999805 2924.066650,38.999741 
	C2922.254150,38.999741 2920.441650,38.999741 2918.000000,38.999741 
	C2918.000000,26.465919 2918.000000,14.201617 2918.000000,1.468657 
	C2984.020752,1.000000 3050.041748,1.000000 3116.531250,1.000004 
z"/>
<path fill="#FC5D19" opacity="1.000000" stroke="none" 
	d="
M1547.531372,1.000000 
	C1548.000000,73.791298 1548.000000,146.582596 1548.000000,219.687103 
	C1533.991821,219.687103 1520.268677,219.687103 1506.047363,219.687103 
	C1506.047363,189.577896 1506.047363,159.521240 1506.047363,129.234634 
	C1455.287354,129.234634 1405.022217,129.234634 1354.261475,129.234634 
	C1354.261475,159.209335 1354.261475,189.265915 1354.261475,219.660431 
	C1340.048462,219.660431 1326.324585,219.660431 1312.000000,219.660431 
	C1312.000000,147.101974 1312.000000,74.519646 1312.000000,1.468657 
	C1325.687622,1.000000 1339.375122,1.000000 1353.531494,1.468657 
	C1354.000366,31.520176 1354.000366,61.103035 1354.000366,90.685974 
	C1404.970459,90.685974 1455.340698,90.685974 1506.000000,90.685974 
	C1506.000000,60.582279 1506.000000,30.791140 1506.000000,1.000000 
	C1519.687622,1.000000 1533.375122,1.000000 1547.531372,1.000000 
z"/>
<path fill="#FC5D19" opacity="1.000000" stroke="none" 
	d="
M2244.531250,1.000000 
	C2245.000000,13.466873 2245.000000,25.933746 2245.000000,38.873489 
	C2186.647949,38.873489 2128.607422,38.873489 2070.284180,38.873489 
	C2070.284180,56.399857 2070.284180,73.452454 2070.284180,90.981125 
	C2128.461670,90.981125 2186.502197,90.981125 2244.770264,90.981125 
	C2244.770264,103.723137 2244.770264,115.993462 2244.770264,128.740540 
	C2186.781494,128.740540 2128.740967,128.740540 2070.212646,128.740540 
	C2070.212646,159.260239 2070.212646,189.311951 2070.212646,219.680710 
	C2056.007080,219.680710 2042.285889,219.680710 2028.000000,219.680710 
	C2028.000000,147.078384 2028.000000,74.507851 2028.000000,1.468657 
	C2100.020752,1.000000 2172.041748,1.000000 2244.531250,1.000000 
z"/>
<path fill="#FC5D19" opacity="1.000000" stroke="none" 
	d="
M612.531372,1.000008 
	C624.235474,20.739676 635.506287,40.459347 646.694336,60.225853 
	C654.513733,74.040695 662.175720,87.944649 669.988159,101.763519 
	C679.473694,118.542122 689.051636,135.268463 698.574158,152.026230 
	C704.415283,162.305557 710.252991,172.586945 716.045227,182.893845 
	C722.077393,193.627731 728.064758,204.386871 734.038818,215.153229 
	C734.799561,216.524323 735.361755,218.005646 736.273743,219.999359 
	C719.561707,219.999359 703.445618,220.043732 687.331299,219.898087 
	C686.273071,219.888519 684.833984,218.651871 684.234924,217.606247 
	C671.803955,195.906937 659.424744,174.177628 647.131165,152.400116 
	C639.325439,138.572571 631.737244,124.622284 623.941101,110.789230 
	C611.620056,88.927429 599.206360,67.117882 586.611328,44.897213 
	C575.750122,64.219612 565.143372,83.254364 554.378113,102.199036 
	C541.008728,125.726494 527.450012,149.146393 514.086243,172.677017 
	C506.067291,186.796585 498.176147,200.990921 490.429626,215.261322 
	C488.614227,218.605667 486.701569,220.219193 482.574738,220.120834 
	C469.083832,219.799316 455.580444,220.000244 442.081879,220.000259 
	C440.472443,220.000259 438.863007,220.000275 436.578033,220.000275 
	C440.101471,213.567078 443.207153,207.765396 446.434082,202.031952 
	C453.269928,189.886383 460.127655,177.752747 467.053009,165.658112 
	C474.858643,152.026291 482.807434,138.476318 490.583282,124.827682 
	C497.016266,113.536079 503.243164,102.127228 509.642181,90.816025 
	C519.315063,73.717834 529.108337,56.687626 538.754883,39.574669 
	C545.848755,26.990179 552.789673,14.319477 559.899414,1.343594 
	C577.354248,1.000000 594.708435,1.000000 612.531372,1.000008 
z"/>
<path fill="#FC5D19" opacity="1.000000" stroke="none" 
	d="
M975.982056,39.113068 
	C943.527710,39.113060 911.073303,39.113060 877.999146,39.113060 
	C877.999146,26.456005 877.999146,14.196660 877.999573,1.468657 
	C957.354248,1.000000 1036.708496,1.000000 1116.531372,1.000000 
	C1117.000000,13.465698 1117.000000,25.931396 1117.000000,38.878304 
	C1084.313477,38.878304 1051.932495,38.878304 1019.090576,38.878304 
	C1019.090576,99.393654 1019.090576,159.428223 1019.090576,219.759766 
	C1004.871155,219.759766 991.112793,219.759766 977.164917,218.920990 
	C976.983643,159.941650 976.999512,101.801079 976.957275,43.660557 
	C976.956177,42.144493 976.321350,40.628891 975.982056,39.113068 
z"/>
<path fill="#FFFFFF" opacity="1.000000" stroke="none" 
	d="
M1505.531372,1.000000 
	C1506.000000,30.791140 1506.000000,60.582279 1506.000000,90.685974 
	C1455.340698,90.685974 1404.970459,90.685974 1354.000366,90.685974 
	C1354.000366,61.103035 1354.000366,31.520176 1354.000244,1.468657 
	C1404.354248,1.000000 1454.708496,1.000000 1505.531372,1.000000 
z"/>
<path fill="#FFFFFF" opacity="1.000000" stroke="none" 
	d="
M1.000000,39.468658 
	C56.833023,38.999920 112.666046,38.998379 168.499069,39.000835 
	C181.596283,39.001415 195.326324,48.030972 199.828903,59.589615 
	C204.834641,72.439934 201.730377,86.363747 191.496277,95.948051 
	C184.931534,102.095955 176.893234,104.951530 168.001190,104.963615 
	C114.668251,105.036072 61.335167,104.999481 8.002131,104.999435 
	C6.197344,104.999435 4.392557,104.999435 1.777008,104.999435 
	C1.777008,119.079041 1.777008,132.841339 1.388504,146.801819 
	C1.000000,111.312439 1.000000,75.624878 1.000000,39.468658 
z"/>
<path fill="#FC5D19" opacity="1.000000" stroke="none" 
	d="
M4031.000000,219.531342 
	C3958.884277,220.000000 3886.768555,220.000000 3814.326660,220.000000 
	C3814.326660,207.353806 3814.326660,194.964890 3814.326660,181.998749 
	C3886.249023,181.998749 3958.155762,181.998749 4030.531250,181.999374 
	C4031.000000,194.354233 4031.000000,206.708450 4031.000000,219.531342 
z"/>
<path fill="#FC5D19" opacity="1.000000" stroke="none" 
	d="
M4031.000000,128.531342 
	C3958.884277,129.000000 3886.768555,129.000000 3814.326660,129.000000 
	C3814.326660,116.352661 3814.326660,103.963921 3814.326660,90.990387 
	C3886.248779,90.990387 3958.155762,90.990387 4030.531250,90.995193 
	C4031.000000,103.354225 4031.000000,115.708458 4031.000000,128.531342 
z"/>
<path fill="#FC5D19" opacity="1.000000" stroke="none" 
	d="
M4031.000000,38.531342 
	C3958.876465,39.000000 3886.752930,39.000000 3814.000000,39.000000 
	C3814.000000,26.461456 3814.000000,14.199386 3814.000000,1.468657 
	C3886.333252,1.000000 3958.666748,1.000000 4031.000000,1.000000 
	C4031.000000,13.438418 4031.000000,25.750551 4031.000000,38.531342 
z"/>
<path fill="#FC5D19" opacity="1.000000" stroke="none" 
	d="
M1081.458008,449.000000 
	C1077.914307,439.801025 1074.989258,430.544250 1071.708374,421.415405 
	C1065.244995,403.431519 1058.587036,385.517517 1052.002319,367.577209 
	C1051.009766,364.872833 1049.979736,362.182129 1048.978760,359.516052 
	C1049.451782,359.300964 1049.591919,359.188904 1049.740112,359.176727 
	C1060.890747,358.262573 1060.691895,358.333740 1065.062012,370.652679 
	C1071.935181,390.027344 1079.106934,409.296112 1086.520630,429.619659 
	C1089.916992,420.106110 1092.947754,411.499115 1096.061035,402.922028 
	C1101.034546,389.219971 1105.984009,375.507690 1111.193604,361.895294 
	C1111.694824,360.585632 1113.915649,359.201904 1115.406982,359.120972 
	C1125.801758,358.557007 1125.631958,358.727264 1129.003296,368.124664 
	C1136.056396,387.785706 1143.310791,407.374542 1150.503540,426.985352 
	C1150.721680,427.579926 1151.171753,428.089417 1151.627441,428.821136 
	C1159.787354,406.296906 1167.866089,383.917603 1176.073486,361.585663 
	C1176.468140,360.511932 1177.935913,359.231171 1179.012695,359.122406 
	C1182.237793,358.796722 1185.516968,359.005280 1189.109375,359.005280 
	C1178.362793,388.506348 1167.837402,417.393524 1157.330933,446.287537 
	C1157.113403,446.885864 1157.114258,447.563599 1157.006592,448.602173 
	C1153.638672,449.000000 1150.277466,449.000000 1146.449829,448.612885 
	C1137.091553,423.779846 1128.199585,399.333923 1118.973145,373.968506 
	C1112.772583,390.563599 1106.895874,405.964630 1101.275391,421.458649 
	C1097.973022,430.562683 1095.078125,439.814606 1092.000000,449.000000 
	C1088.638672,449.000000 1085.277466,449.000000 1081.458008,449.000000 
z"/>
<path fill="#FC5D19" opacity="1.000000" stroke="none" 
	d="
M2169.458008,449.000000 
	C2165.914307,439.801239 2162.989746,430.544647 2159.708984,421.416046 
	C2153.245361,403.431946 2146.587158,385.517914 2140.002441,367.577423 
	C2139.010254,364.874176 2137.980713,362.184631 2136.979004,359.516174 
	C2137.451660,359.301086 2137.591797,359.188995 2137.739990,359.176849 
	C2148.889893,358.262390 2148.691650,358.333252 2153.062256,370.652588 
	C2159.935547,390.027100 2167.106689,409.296021 2174.520508,429.619812 
	C2177.916992,420.106110 2180.947754,411.499176 2184.061035,402.922211 
	C2189.034424,389.220062 2193.984131,375.507782 2199.193604,361.895386 
	C2199.694824,360.585785 2201.915527,359.201904 2203.406738,359.121002 
	C2213.801758,358.556976 2213.632080,358.727234 2217.003174,368.124237 
	C2224.056152,387.785187 2231.310791,407.374054 2238.503174,426.984894 
	C2238.721436,427.579437 2239.171387,428.089020 2239.627197,428.821381 
	C2247.787354,406.297089 2255.865723,383.918396 2264.072998,361.587097 
	C2264.467773,360.513000 2265.934814,359.231140 2267.011475,359.122437 
	C2270.236816,358.796661 2273.516113,359.005280 2277.109619,359.005280 
	C2266.363281,388.505859 2255.837646,417.393402 2245.331055,446.287720 
	C2245.113525,446.886047 2245.114014,447.563660 2245.006348,448.602173 
	C2241.638672,449.000000 2238.277344,449.000000 2234.449951,448.612915 
	C2225.091797,423.779694 2216.199707,399.333557 2206.973389,373.968292 
	C2200.772705,390.563538 2194.895752,405.964752 2189.275391,421.458954 
	C2185.972656,430.562866 2183.077881,439.814667 2180.000000,449.000000 
	C2176.638672,449.000000 2173.277344,449.000000 2169.458008,449.000000 
z"/>
<path fill="#FC5D19" opacity="1.000000" stroke="none" 
	d="
M2903.468750,449.000000 
	C2893.810059,442.126923 2892.617432,439.890289 2893.228760,430.319397 
	C2896.608643,430.319397 2900.016846,430.319397 2903.429199,430.316772 
	C2904.761963,437.998810 2904.761963,437.998871 2912.750000,437.998932 
	C2930.745605,437.999084 2948.742920,437.871490 2966.736084,438.086731 
	C2971.380615,438.142273 2972.969727,436.084717 2972.992676,431.967865 
	C2973.022461,426.635986 2973.017578,421.303741 2972.994629,415.971802 
	C2972.976807,411.797485 2971.264893,409.862823 2966.675781,409.914581 
	C2948.182617,410.123169 2929.685303,409.918823 2911.190430,410.029816 
	C2898.777588,410.104309 2892.127441,401.222046 2892.916016,391.875916 
	C2893.376709,386.416077 2893.153320,380.880249 2892.960205,375.388367 
	C2892.731689,368.890564 2895.208740,363.908875 2900.860840,360.790222 
	C2902.762695,359.740875 2905.146973,359.089203 2907.316162,359.075409 
	C2927.310547,358.947876 2947.306152,359.000183 2967.301270,359.000275 
	C2978.739502,359.000336 2984.887695,365.962036 2983.609619,377.748810 
	C2980.221680,377.748810 2976.802734,377.748810 2973.402344,377.748810 
	C2972.380615,370.067963 2972.301514,370.000977 2964.428955,370.001007 
	C2946.433350,370.001038 2928.436523,370.101562 2910.442627,369.931976 
	C2905.804932,369.888306 2903.689209,371.350708 2903.938232,376.222229 
	C2904.210205,381.540375 2904.147217,386.888519 2903.954102,392.213531 
	C2903.797363,396.530273 2905.643066,398.078430 2909.876709,398.051117 
	C2928.538086,397.930603 2947.201172,397.915985 2965.862549,398.035370 
	C2974.678223,398.091766 2981.955566,402.112946 2982.866211,409.589600 
	C2984.242676,420.892212 2987.465332,432.848450 2980.019043,443.497803 
	C2978.627686,445.487671 2976.185303,446.742706 2974.114014,448.668457 
	C2950.645752,449.000000 2927.291748,449.000000 2903.468750,449.000000 
z"/>
<path fill="#FC5D19" opacity="1.000000" stroke="none" 
	d="
M1682.458008,449.000000 
	C1682.000000,419.218292 1682.000000,389.436615 1682.000000,359.285278 
	C1683.663208,359.180573 1685.095703,359.012756 1686.528198,359.011780 
	C1710.503052,358.995544 1734.483154,359.279236 1758.449219,358.823090 
	C1765.274780,358.693207 1773.643555,366.692413 1773.161011,373.588470 
	C1772.511719,382.866547 1773.011353,392.224304 1772.996338,401.547791 
	C1772.984497,408.815796 1766.053345,415.830627 1758.672119,415.985443 
	C1754.687134,416.069031 1750.698730,416.000275 1745.181885,416.000275 
	C1754.859253,427.324402 1763.841431,437.835175 1772.911865,448.672974 
	C1768.310669,449.000000 1763.621460,449.000000 1758.375244,448.670990 
	C1751.449341,440.664062 1745.166504,432.912170 1738.671509,425.342346 
	C1735.839600,422.041779 1732.787354,416.743713 1729.465332,416.443268 
	C1717.486938,415.359985 1705.351318,416.017456 1693.000000,416.017456 
	C1693.000000,427.419434 1693.000000,438.209717 1693.000000,449.000000 
	C1689.638672,449.000000 1686.277466,449.000000 1682.458008,449.000000 
M1743.496704,370.001099 
	C1728.999878,370.001099 1714.501587,370.117279 1700.007080,369.934326 
	C1695.303589,369.874969 1693.225464,372.265686 1693.075562,376.361725 
	C1692.813721,383.517212 1692.604614,390.719025 1693.136108,397.844513 
	C1693.529175,403.114777 1694.924194,405.033752 1700.885010,405.017700 
	C1719.047607,404.968872 1737.210693,404.950012 1755.373047,405.035278 
	C1759.860107,405.056366 1762.071533,403.253326 1762.022461,398.648041 
	C1761.939087,390.817291 1761.950439,382.984558 1762.021606,375.153595 
	C1762.053467,371.653625 1760.597778,369.910522 1756.991333,369.981903 
	C1752.827148,370.064362 1748.660156,370.001099 1743.496704,370.001099 
z"/>
<path fill="#FC5D19" opacity="1.000000" stroke="none" 
	d="
M2467.458008,449.000000 
	C2467.000000,419.218292 2467.000000,389.436615 2467.000000,359.285156 
	C2468.663086,359.180481 2470.095459,359.012695 2471.528076,359.011749 
	C2495.502930,358.995544 2519.482910,359.279236 2543.448975,358.823059 
	C2550.276123,358.693146 2558.643799,366.693970 2558.161133,373.588226 
	C2557.511963,382.866272 2558.011475,392.224030 2557.996338,401.547516 
	C2557.984863,408.815704 2551.053955,415.830505 2543.672852,415.985413 
	C2539.687500,416.069031 2535.698730,416.000275 2530.181885,416.000275 
	C2539.859131,427.324493 2548.841553,437.835236 2557.911865,448.672974 
	C2553.310791,449.000000 2548.621338,449.000000 2543.375244,448.670990 
	C2536.449463,440.664093 2530.166504,432.912292 2523.671631,425.342560 
	C2520.839844,422.041962 2517.787354,416.743835 2514.465332,416.443359 
	C2502.487061,415.360077 2490.351074,416.017487 2478.000000,416.017487 
	C2478.000000,427.419373 2478.000000,438.209686 2478.000000,449.000000 
	C2474.638672,449.000000 2471.277344,449.000000 2467.458008,449.000000 
M2515.500000,370.001099 
	C2505.335693,370.001068 2495.168213,370.149078 2485.008545,369.935242 
	C2480.302490,369.836212 2478.225586,372.264282 2478.075439,376.360901 
	C2477.813721,383.516296 2477.604736,390.717957 2478.135498,397.843475 
	C2478.528564,403.118530 2479.930908,405.033844 2485.884033,405.017792 
	C2504.046631,404.968781 2522.208984,405.022156 2540.371582,404.985840 
	C2545.560791,404.975494 2546.959961,403.495148 2546.989746,398.150391 
	C2547.030518,390.818970 2546.841553,383.482452 2547.058838,376.157227 
	C2547.191162,371.702148 2545.576660,369.818420 2540.992676,369.940002 
	C2532.833740,370.156433 2524.664795,370.000977 2515.500000,370.001099 
z"/>
<path fill="#FC5D19" opacity="1.000000" stroke="none" 
	d="
M2749.468750,449.000000 
	C2749.000000,419.210815 2749.000000,389.421600 2749.000000,359.000183 
	C2751.037354,359.000183 2752.800537,359.000214 2754.563721,359.000214 
	C2777.880859,359.000183 2801.206543,359.363159 2824.510742,358.813416 
	C2833.273926,358.606659 2839.863770,366.740295 2839.931885,373.828918 
	C2840.125977,393.979767 2840.213135,414.137268 2839.873779,434.284271 
	C2839.767578,440.611176 2836.286865,445.600006 2830.115234,448.668274 
	C2803.312500,449.000000 2776.625000,449.000000 2749.468750,449.000000 
M2763.091797,437.957214 
	C2782.729980,437.971191 2802.368164,437.988373 2822.006348,437.997131 
	C2827.753174,437.999664 2828.799561,437.093628 2828.964355,431.181641 
	C2829.126465,425.361206 2829.000000,419.532715 2829.000000,413.707764 
	C2829.000000,401.558563 2829.114502,389.407623 2828.927002,377.261322 
	C2828.874023,373.824707 2829.077881,369.887299 2823.447021,369.936310 
	C2804.143066,370.104523 2784.836182,370.052643 2765.531250,369.959412 
	C2761.472656,369.939850 2759.937256,371.620789 2759.957275,375.619202 
	C2760.052979,394.591431 2759.942383,413.564880 2760.096924,432.536346 
	C2760.111084,434.260803 2761.487793,435.974182 2763.091797,437.957214 
z"/>
<path fill="#FC5D19" opacity="1.000000" stroke="none" 
	d="
M1549.468628,449.000000 
	C1541.163818,444.356293 1538.644043,437.433044 1538.869873,428.481049 
	C1539.310913,410.998108 1538.992920,393.496155 1539.001709,376.002075 
	C1539.007202,365.085846 1545.037964,359.000183 1555.819092,359.000214 
	C1575.312500,359.000244 1594.805786,358.999329 1614.299194,359.000549 
	C1624.163574,359.001190 1629.999390,364.932709 1629.999756,374.956055 
	C1630.000366,394.282837 1629.873657,413.610870 1630.063354,432.935791 
	C1630.136841,440.432007 1626.874634,445.351715 1620.115112,448.667664 
	C1596.645752,449.000000 1573.291504,449.000000 1549.468628,449.000000 
M1578.500000,437.998932 
	C1590.145508,437.998901 1601.791382,437.942932 1613.436157,438.031952 
	C1617.059570,438.059662 1619.036987,436.850128 1619.025146,432.916260 
	C1618.967773,413.618195 1618.974365,394.319763 1619.021851,375.021637 
	C1619.030640,371.433990 1617.381714,369.970978 1613.873413,369.979187 
	C1594.242432,370.025085 1574.610840,369.940247 1554.981812,370.133972 
	C1553.629761,370.147308 1551.267700,371.939240 1551.127808,373.112671 
	C1550.430176,378.971527 1550.105713,384.897919 1550.043213,390.804657 
	C1549.904419,403.945953 1549.960938,417.089905 1550.016113,430.232452 
	C1550.045166,437.148193 1550.942505,437.997284 1557.536255,437.998718 
	C1564.190796,438.000153 1570.845459,437.998962 1578.500000,437.998932 
z"/>
<path fill="#FC5D19" opacity="1.000000" stroke="none" 
	d="
M2334.468750,449.000000 
	C2326.164307,444.356140 2323.644287,437.433594 2323.870361,428.481323 
	C2324.312012,410.998322 2323.993896,393.496338 2324.002441,376.002197 
	C2324.007568,365.084839 2330.036621,359.000214 2340.818604,359.000214 
	C2360.312012,359.000244 2379.805664,358.999329 2399.299072,359.000549 
	C2409.163330,359.001190 2414.999268,364.932953 2414.999756,374.956116 
	C2415.000244,394.282959 2414.873779,413.611023 2415.063477,432.936005 
	C2415.136963,440.432343 2411.874268,445.351562 2405.115234,448.667664 
	C2381.645752,449.000000 2358.291748,449.000000 2334.468750,449.000000 
M2375.500000,437.998932 
	C2382.986328,437.998932 2390.477539,437.838867 2397.957520,438.058563 
	C2402.497070,438.191956 2404.097412,436.374542 2404.062012,431.895813 
	C2403.914795,413.264191 2403.912598,394.630035 2404.062256,375.998444 
	C2404.098877,371.429382 2402.294922,369.904510 2397.853027,369.939331 
	C2379.221436,370.085419 2360.583496,370.225342 2341.958008,369.856934 
	C2336.731201,369.753540 2335.082520,372.111603 2335.054932,376.352692 
	C2334.934570,394.818298 2334.925049,413.285767 2335.062988,431.751160 
	C2335.094727,436.004303 2336.920410,438.358276 2342.064941,438.138794 
	C2352.859131,437.678314 2363.686279,437.998993 2375.500000,437.998932 
z"/>
<path fill="#FC5D19" opacity="1.000000" stroke="none" 
	d="
M1836.468628,449.000000 
	C1835.331299,448.332611 1834.732910,447.570374 1833.982056,447.013489 
	C1829.584717,443.751160 1826.796265,440.002441 1826.885254,433.945190 
	C1827.186279,413.466309 1826.993774,392.980286 1827.003418,372.496979 
	C1827.006592,365.693848 1833.620728,359.008545 1840.361572,359.004486 
	C1860.511841,358.992462 1880.662109,359.000214 1900.812378,359.000183 
	C1912.405151,359.000183 1918.073242,365.663940 1916.514282,378.000000 
	C1914.794922,378.000000 1913.008423,378.000000 1911.222046,378.000000 
	C1909.594482,378.000000 1907.966919,378.000000 1906.393066,378.000000 
	C1905.540039,370.001404 1905.540039,370.001129 1897.489746,370.001068 
	C1879.837524,370.000916 1862.185181,369.993927 1844.532959,370.005005 
	C1838.539795,370.008759 1838.007202,370.550873 1838.004028,376.621735 
	C1837.994629,394.940125 1838.100342,413.259460 1837.931519,431.576294 
	C1837.888672,436.226257 1839.390137,438.120758 1844.232788,438.072845 
	C1862.715820,437.889923 1881.202881,437.893890 1899.686035,438.071075 
	C1904.446045,438.116699 1906.258911,436.394958 1906.063599,431.655426 
	C1905.803589,425.350281 1905.999268,419.026367 1905.999268,412.213745 
	C1898.755981,412.213745 1891.689087,412.213745 1884.316528,412.213745 
	C1884.316528,408.335785 1884.316528,404.946320 1884.316528,401.274353 
	C1895.074951,401.274353 1905.795532,401.274353 1916.992798,401.274353 
	C1916.992798,413.701630 1917.645752,426.032318 1916.588989,438.214722 
	C1916.277710,441.804047 1911.129395,444.973816 1908.098877,448.667908 
	C1884.312378,449.000000 1860.624878,449.000000 1836.468628,449.000000 
z"/>
<path fill="#FC5D19" opacity="1.000000" stroke="none" 
	d="
M1239.468628,449.000000 
	C1239.000000,419.200104 1239.000000,389.400208 1239.000000,359.300842 
	C1266.702637,359.300842 1294.091187,359.300842 1321.740479,359.300842 
	C1321.740479,362.784241 1321.740479,366.176392 1321.740479,369.879730 
	C1297.944702,369.879730 1274.336182,369.879730 1250.364746,369.879730 
	C1250.364746,379.235901 1250.364746,388.295441 1250.364746,397.998962 
	C1253.852661,397.998962 1257.454102,397.998962 1261.055542,397.998962 
	C1274.886230,397.998962 1288.723511,398.242676 1302.544312,397.873230 
	C1307.726196,397.734680 1308.106934,400.049347 1308.111694,404.149139 
	C1308.116455,408.133942 1307.568726,410.187866 1302.747437,410.110352 
	C1285.426270,409.831787 1268.097900,410.001038 1250.386353,410.001038 
	C1250.386353,419.190460 1250.386353,428.251068 1250.386353,437.803223 
	C1273.952515,437.803223 1297.680298,437.803223 1322.000000,437.803223 
	C1322.000000,441.532013 1322.000000,444.803009 1322.000000,448.536987 
	C1294.645752,449.000000 1267.291504,449.000000 1239.468628,449.000000 
z"/>
<path fill="#FC5D19" opacity="1.000000" stroke="none" 
	d="
M1970.468628,449.000000 
	C1970.000000,419.200104 1970.000000,389.400208 1970.000000,359.300842 
	C1997.702515,359.300842 2025.091064,359.300842 2052.740234,359.300842 
	C2052.740234,362.784271 2052.740234,366.176331 2052.740234,369.879700 
	C2028.944824,369.879700 2005.336304,369.879700 1981.364746,369.879700 
	C1981.364746,379.235901 1981.364746,388.295441 1981.364746,397.998962 
	C1984.852783,397.998962 1988.454224,397.998962 1992.055664,397.998962 
	C2005.886353,397.998962 2019.723633,398.242706 2033.544434,397.873230 
	C2038.726440,397.734711 2039.106689,400.049530 2039.111450,404.149170 
	C2039.116211,408.134003 2038.568604,410.187897 2033.747437,410.110352 
	C2016.426270,409.831787 1999.097900,410.001038 1981.386353,410.001038 
	C1981.386353,419.190460 1981.386353,428.251068 1981.386353,437.803223 
	C2004.952393,437.803223 2028.680420,437.803223 2053.000000,437.803223 
	C2053.000000,441.531982 2053.000000,444.802979 2053.000000,448.536987 
	C2025.645752,449.000000 1998.291504,449.000000 1970.468628,449.000000 
z"/>
<path fill="#FC5D19" opacity="1.000000" stroke="none" 
	d="
M1409.458008,449.000000 
	C1409.000000,419.214508 1409.000000,389.429016 1409.000000,359.322266 
	C1436.645142,359.322266 1464.020264,359.322266 1491.698364,359.322266 
	C1491.698364,362.695831 1491.698364,366.087036 1491.698364,369.952789 
	C1467.927734,369.952789 1444.209961,369.952789 1420.248779,369.952789 
	C1420.248779,379.351135 1420.248779,388.286713 1420.248779,397.998962 
	C1421.875488,397.998962 1423.618896,397.998962 1425.362305,397.998962 
	C1441.181885,397.998962 1457.005127,398.187225 1472.819092,397.887451 
	C1477.737671,397.794159 1478.191162,400.007233 1478.084106,403.918274 
	C1477.984619,407.552002 1478.214233,410.220154 1472.986816,410.123413 
	C1455.533813,409.800415 1438.071289,410.001007 1420.000000,410.001007 
	C1420.000000,422.883423 1420.000000,435.473053 1420.000000,448.531342 
	C1416.638672,449.000000 1413.277466,449.000000 1409.458008,449.000000 
z"/>
<path fill="#FFFFFF" opacity="1.000000" stroke="none" 
	d="
M1092.468506,449.000000 
	C1095.078125,439.814606 1097.973022,430.562683 1101.275391,421.458649 
	C1106.895874,405.964630 1112.772583,390.563599 1118.973145,373.968506 
	C1128.199585,399.333923 1137.091553,423.779846 1145.991699,448.612885 
	C1128.312378,449.000000 1110.624878,449.000000 1092.468506,449.000000 
z"/>
<path fill="#FFFFFF" opacity="1.000000" stroke="none" 
	d="
M2180.468750,449.000000 
	C2183.077881,439.814667 2185.972656,430.562866 2189.275391,421.458954 
	C2194.895752,405.964752 2200.772705,390.563538 2206.973389,373.968292 
	C2216.199707,399.333557 2225.091797,423.779694 2233.991943,448.612915 
	C2216.312500,449.000000 2198.625000,449.000000 2180.468750,449.000000 
z"/>
<path fill="#FC5D19" opacity="1.000000" stroke="none" 
	d="
M2612.468750,449.000000 
	C2612.000000,418.892792 2612.000000,388.785553 2612.000000,358.846252 
	C2612.491943,358.481964 2612.736816,358.143646 2613.002441,358.126648 
	C2622.999756,357.484161 2623.000000,357.488129 2623.000000,367.574280 
	C2623.000000,389.044800 2623.000000,410.515350 2623.000000,431.985870 
	C2623.000000,433.789886 2623.000000,435.593872 2623.000000,437.998932 
	C2625.069824,437.998932 2626.835693,437.998962 2628.601562,437.998962 
	C2650.904297,437.998993 2673.207031,437.998810 2695.509766,437.998993 
	C2703.000244,437.999054 2703.000244,437.999420 2703.000244,445.593567 
	C2703.000244,446.425751 2703.000000,447.257965 2703.000000,448.545074 
	C2672.979248,449.000000 2642.958252,449.000000 2612.468750,449.000000 
z"/>
<path fill="#FFFFFF" opacity="1.000000" stroke="none" 
	d="
M1693.468628,449.000000 
	C1693.000000,438.209717 1693.000000,427.419434 1693.000000,416.017456 
	C1705.351318,416.017456 1717.486938,415.359985 1729.465332,416.443268 
	C1732.787354,416.743713 1735.839600,422.041779 1738.671509,425.342346 
	C1745.166504,432.912170 1751.449341,440.664062 1757.909180,448.670990 
	C1736.645752,449.000000 1715.291504,449.000000 1693.468628,449.000000 
z"/>
<path fill="#FFFFFF" opacity="1.000000" stroke="none" 
	d="
M2478.468750,449.000000 
	C2478.000000,438.209686 2478.000000,427.419373 2478.000000,416.017487 
	C2490.351074,416.017487 2502.487061,415.360077 2514.465332,416.443359 
	C2517.787354,416.743835 2520.839844,422.041962 2523.671631,425.342560 
	C2530.166504,432.912292 2536.449463,440.664093 2542.909180,448.670990 
	C2521.645752,449.000000 2500.291748,449.000000 2478.468750,449.000000 
z"/>
<path fill="#800101" opacity="1.000000" stroke="none" 
	d="
M975.990173,39.571434 
	C976.321350,40.628891 976.956177,42.144493 976.957275,43.660557 
	C976.999512,101.801079 976.983643,159.941650 976.929688,218.548889 
	C976.589294,217.329666 976.038330,215.643967 976.037048,213.957840 
	C975.992004,155.981842 975.998901,98.005821 975.990173,39.571434 
z"/>
<path fill="#E04101" opacity="1.000000" stroke="none" 
	d="
M3410.908203,123.489784 
	C3410.662109,115.187462 3410.483887,106.424088 3410.575195,97.348648 
	C3410.888428,105.700630 3410.932129,114.364677 3410.908203,123.489784 
z"/>
<path fill="#FFFFFF" opacity="1.000000" stroke="none" 
	d="
M2677.023438,107.584503 
	C2676.488770,114.411087 2676.706299,120.973839 2675.232422,127.131645 
	C2670.459473,147.070663 2658.357178,161.996185 2640.965332,172.251999 
	C2632.197021,177.422394 2622.459473,180.907364 2611.870361,181.038498 
	C2597.616699,181.215027 2583.353027,182.182617 2569.120117,181.806931 
	C2560.570312,181.581253 2551.703125,180.580612 2543.616211,177.959824 
	C2516.075195,169.033966 2499.060059,150.069656 2494.075684,121.359276 
	C2489.904053,97.330803 2497.572754,76.875839 2514.761475,59.792274 
	C2529.482910,45.160793 2547.321777,38.688297 2567.907227,38.966858 
	C2580.904785,39.142742 2593.908936,38.848671 2606.906250,39.037701 
	C2623.578125,39.280174 2638.109375,45.122746 2651.150635,55.575905 
	C2665.631592,67.183395 2673.331787,82.416824 2676.883545,100.148903 
	C2677.333252,102.395432 2676.981689,104.802513 2677.023438,107.584503 
z"/>
<path fill="#FFFFFF" opacity="1.000000" stroke="none" 
	d="
M1743.995605,370.001099 
	C1748.660156,370.001099 1752.827148,370.064362 1756.991333,369.981903 
	C1760.597778,369.910522 1762.053467,371.653625 1762.021606,375.153595 
	C1761.950439,382.984558 1761.939087,390.817291 1762.022461,398.648041 
	C1762.071533,403.253326 1759.860107,405.056366 1755.373047,405.035278 
	C1737.210693,404.950012 1719.047607,404.968872 1700.885010,405.017700 
	C1694.924194,405.033752 1693.529175,403.114777 1693.136108,397.844513 
	C1692.604614,390.719025 1692.813721,383.517212 1693.075562,376.361725 
	C1693.225464,372.265686 1695.303589,369.874969 1700.007080,369.934326 
	C1714.501587,370.117279 1728.999878,370.001099 1743.995605,370.001099 
z"/>
<path fill="#FFFFFF" opacity="1.000000" stroke="none" 
	d="
M2516.000000,370.001099 
	C2524.664795,370.000977 2532.833740,370.156433 2540.992676,369.940002 
	C2545.576660,369.818420 2547.191162,371.702148 2547.058838,376.157227 
	C2546.841553,383.482452 2547.030518,390.818970 2546.989746,398.150391 
	C2546.959961,403.495148 2545.560791,404.975494 2540.371582,404.985840 
	C2522.208984,405.022156 2504.046631,404.968781 2485.884033,405.017792 
	C2479.930908,405.033844 2478.528564,403.118530 2478.135498,397.843475 
	C2477.604736,390.717957 2477.813721,383.516296 2478.075439,376.360901 
	C2478.225586,372.264282 2480.302490,369.836212 2485.008545,369.935242 
	C2495.168213,370.149078 2505.335693,370.001068 2516.000000,370.001099 
z"/>
<path fill="#FFFFFF" opacity="1.000000" stroke="none" 
	d="
M2762.661621,437.824951 
	C2761.487793,435.974182 2760.111084,434.260803 2760.096924,432.536346 
	C2759.942383,413.564880 2760.052979,394.591431 2759.957275,375.619202 
	C2759.937256,371.620789 2761.472656,369.939850 2765.531250,369.959412 
	C2784.836182,370.052643 2804.143066,370.104523 2823.447021,369.936310 
	C2829.077881,369.887299 2828.874023,373.824707 2828.927002,377.261322 
	C2829.114502,389.407623 2829.000000,401.558563 2829.000000,413.707764 
	C2829.000000,419.532715 2829.126465,425.361206 2828.964355,431.181641 
	C2828.799561,437.093628 2827.753174,437.999664 2822.006348,437.997131 
	C2802.368164,437.988373 2782.729980,437.971191 2762.661621,437.824951 
z"/>
<path fill="#FFFFFF" opacity="1.000000" stroke="none" 
	d="
M1578.000000,437.998932 
	C1570.845459,437.998962 1564.190796,438.000153 1557.536255,437.998718 
	C1550.942505,437.997284 1550.045166,437.148193 1550.016113,430.232452 
	C1549.960938,417.089905 1549.904419,403.945953 1550.043213,390.804657 
	C1550.105713,384.897919 1550.430176,378.971527 1551.127808,373.112671 
	C1551.267700,371.939240 1553.629761,370.147308 1554.981812,370.133972 
	C1574.610840,369.940247 1594.242432,370.025085 1613.873413,369.979187 
	C1617.381714,369.970978 1619.030640,371.433990 1619.021851,375.021637 
	C1618.974365,394.319763 1618.967773,413.618195 1619.025146,432.916260 
	C1619.036987,436.850128 1617.059570,438.059662 1613.436157,438.031952 
	C1601.791382,437.942932 1590.145508,437.998901 1578.000000,437.998932 
z"/>
<path fill="#FFFFFF" opacity="1.000000" stroke="none" 
	d="
M2375.000000,437.998932 
	C2363.686279,437.998993 2352.859131,437.678314 2342.064941,438.138794 
	C2336.920410,438.358276 2335.094727,436.004303 2335.062988,431.751160 
	C2334.925049,413.285767 2334.934570,394.818298 2335.054932,376.352692 
	C2335.082520,372.111603 2336.731201,369.753540 2341.958008,369.856934 
	C2360.583496,370.225342 2379.221436,370.085419 2397.853027,369.939331 
	C2402.294922,369.904510 2404.098877,371.429382 2404.062256,375.998444 
	C2403.912598,394.630035 2403.914795,413.264191 2404.062012,431.895813 
	C2404.097412,436.374542 2402.497070,438.191956 2397.957520,438.058563 
	C2390.477539,437.838867 2382.986328,437.998932 2375.000000,437.998932 
z"/>
</svg>